%TF.GenerationSoftware,KiCad,Pcbnew,9.0.7*%
%TF.CreationDate,2026-07-19T17:45:38-07:00*%
%TF.ProjectId,USB-C-12V-2A-BUCK-BOOST-CONVERTER,5553422d-432d-4313-9256-2d32412d4255,rev?*%
%TF.SameCoordinates,Original*%
%TF.FileFunction,Copper,L1,Top*%
%TF.FilePolarity,Positive*%
%FSLAX46Y46*%
G04 Gerber Fmt 4.6, Leading zero omitted, Abs format (unit mm)*
G04 Created by KiCad (PCBNEW 9.0.7) date 2026-07-19 17:45:38*
%MOMM*%
%LPD*%
G01*
G04 APERTURE LIST*
G04 Aperture macros list*
%AMRoundRect*
0 Rectangle with rounded corners*
0 $1 Rounding radius*
0 $2 $3 $4 $5 $6 $7 $8 $9 X,Y pos of 4 corners*
0 Add a 4 corners polygon primitive as box body*
4,1,4,$2,$3,$4,$5,$6,$7,$8,$9,$2,$3,0*
0 Add four circle primitives for the rounded corners*
1,1,$1+$1,$2,$3*
1,1,$1+$1,$4,$5*
1,1,$1+$1,$6,$7*
1,1,$1+$1,$8,$9*
0 Add four rect primitives between the rounded corners*
20,1,$1+$1,$2,$3,$4,$5,0*
20,1,$1+$1,$4,$5,$6,$7,0*
20,1,$1+$1,$6,$7,$8,$9,0*
20,1,$1+$1,$8,$9,$2,$3,0*%
G04 Aperture macros list end*
%TA.AperFunction,SMDPad,CuDef*%
%ADD10RoundRect,0.250000X-0.475000X0.250000X-0.475000X-0.250000X0.475000X-0.250000X0.475000X0.250000X0*%
%TD*%
%TA.AperFunction,SMDPad,CuDef*%
%ADD11RoundRect,0.225000X0.250000X-0.225000X0.250000X0.225000X-0.250000X0.225000X-0.250000X-0.225000X0*%
%TD*%
%TA.AperFunction,ComponentPad*%
%ADD12RoundRect,0.250000X0.750000X-0.600000X0.750000X0.600000X-0.750000X0.600000X-0.750000X-0.600000X0*%
%TD*%
%TA.AperFunction,ComponentPad*%
%ADD13O,2.000000X1.700000*%
%TD*%
%TA.AperFunction,SMDPad,CuDef*%
%ADD14RoundRect,0.200000X-0.275000X0.200000X-0.275000X-0.200000X0.275000X-0.200000X0.275000X0.200000X0*%
%TD*%
%TA.AperFunction,SMDPad,CuDef*%
%ADD15RoundRect,0.225000X-0.225000X-0.250000X0.225000X-0.250000X0.225000X0.250000X-0.225000X0.250000X0*%
%TD*%
%TA.AperFunction,SMDPad,CuDef*%
%ADD16RoundRect,0.250000X-0.250000X-0.475000X0.250000X-0.475000X0.250000X0.475000X-0.250000X0.475000X0*%
%TD*%
%TA.AperFunction,ComponentPad*%
%ADD17O,1.800000X1.000000*%
%TD*%
%TA.AperFunction,SMDPad,CuDef*%
%ADD18R,1.000000X0.700000*%
%TD*%
%TA.AperFunction,SMDPad,CuDef*%
%ADD19R,1.000000X0.750000*%
%TD*%
%TA.AperFunction,SMDPad,CuDef*%
%ADD20R,1.000000X0.800000*%
%TD*%
%TA.AperFunction,SMDPad,CuDef*%
%ADD21R,0.300000X0.600000*%
%TD*%
%TA.AperFunction,SMDPad,CuDef*%
%ADD22R,1.200000X0.450000*%
%TD*%
%TA.AperFunction,SMDPad,CuDef*%
%ADD23R,1.100000X1.100000*%
%TD*%
%TA.AperFunction,SMDPad,CuDef*%
%ADD24R,3.400000X2.000000*%
%TD*%
%TA.AperFunction,SMDPad,CuDef*%
%ADD25RoundRect,0.200000X0.275000X-0.200000X0.275000X0.200000X-0.275000X0.200000X-0.275000X-0.200000X0*%
%TD*%
%TA.AperFunction,SMDPad,CuDef*%
%ADD26RoundRect,0.250000X0.250000X0.475000X-0.250000X0.475000X-0.250000X-0.475000X0.250000X-0.475000X0*%
%TD*%
%TA.AperFunction,SMDPad,CuDef*%
%ADD27RoundRect,0.200000X-0.200000X-0.275000X0.200000X-0.275000X0.200000X0.275000X-0.200000X0.275000X0*%
%TD*%
%TA.AperFunction,ViaPad*%
%ADD28C,0.600000*%
%TD*%
%TA.AperFunction,Conductor*%
%ADD29C,0.300000*%
%TD*%
%TA.AperFunction,Conductor*%
%ADD30C,0.200000*%
%TD*%
%TA.AperFunction,Conductor*%
%ADD31C,0.500000*%
%TD*%
G04 APERTURE END LIST*
D10*
%TO.P,C9,1*%
%TO.N,Net-(J1-Pin_2)*%
X161290000Y-81285000D03*
%TO.P,C9,2*%
%TO.N,GND*%
X161290000Y-83185000D03*
%TD*%
D11*
%TO.P,C6,1*%
%TO.N,Net-(U1-SW)*%
X153035000Y-81420000D03*
%TO.P,C6,2*%
%TO.N,Net-(U1-BOOT)*%
X153035000Y-79870000D03*
%TD*%
D12*
%TO.P,J1,1,Pin_1*%
%TO.N,GND*%
X177800000Y-83820000D03*
D13*
%TO.P,J1,2,Pin_2*%
%TO.N,Net-(J1-Pin_2)*%
X177800000Y-81320000D03*
%TD*%
D14*
%TO.P,R2,1*%
%TO.N,Net-(USB1-CC2)*%
X132080000Y-95695000D03*
%TO.P,R2,2*%
%TO.N,GND*%
X132080000Y-97345000D03*
%TD*%
D10*
%TO.P,C12,1*%
%TO.N,Net-(J1-Pin_2)*%
X171450000Y-81285000D03*
%TO.P,C12,2*%
%TO.N,GND*%
X171450000Y-83185000D03*
%TD*%
D15*
%TO.P,C7,1*%
%TO.N,Net-(U1-COMP)*%
X166117500Y-85400484D03*
%TO.P,C7,2*%
%TO.N,GND*%
X167667500Y-85400484D03*
%TD*%
D16*
%TO.P,C3,1*%
%TO.N,VBUS*%
X149230000Y-94615000D03*
%TO.P,C3,2*%
%TO.N,GND*%
X151130000Y-94615000D03*
%TD*%
D10*
%TO.P,C11,1*%
%TO.N,Net-(J1-Pin_2)*%
X168275000Y-81285000D03*
%TO.P,C11,2*%
%TO.N,GND*%
X168275000Y-83185000D03*
%TD*%
D17*
%TO.P,USB-C,1,SHELL*%
%TO.N,unconnected-(USB1-SHELL-Pad1)*%
X134498673Y-85215000D03*
%TO.N,unconnected-(USB1-SHELL-Pad1)_1*%
X130688673Y-85215000D03*
%TO.P,USB-C,2,SHELL*%
%TO.N,unconnected-(USB1-SHELL-Pad2)*%
X134498673Y-93855000D03*
%TO.N,unconnected-(USB1-SHELL-Pad2)_1*%
X130688673Y-93855000D03*
D18*
%TO.P,USB-C,A5,CC1*%
%TO.N,Net-(USB1-CC1)*%
X134548673Y-89035000D03*
D19*
%TO.P,USB-C,A9,VBUS*%
%TO.N,VBUS*%
X134548673Y-91035000D03*
D20*
%TO.P,USB-C,A12,GND*%
%TO.N,GND*%
X134548673Y-92235000D03*
D18*
%TO.P,USB-C,B5,CC2*%
%TO.N,Net-(USB1-CC2)*%
X134548673Y-90035000D03*
D19*
%TO.P,USB-C,B9,VBUS*%
%TO.N,VBUS*%
X134548673Y-88035000D03*
D20*
%TO.P,USB-C,B12,GND*%
%TO.N,GND*%
X134548673Y-86835000D03*
%TD*%
D21*
%TO.P,U1,1,FSW*%
%TO.N,Net-(U1-FSW)*%
X155460000Y-83750000D03*
%TO.P,U1,2,VCC*%
%TO.N,Net-(U1-EN)*%
X155960000Y-83750000D03*
%TO.P,U1,3,FB*%
%TO.N,Net-(U1-FB)*%
X156460000Y-83750000D03*
%TO.P,U1,4,COMP*%
%TO.N,Net-(U1-COMP)*%
X156960000Y-83750000D03*
D22*
%TO.P,U1,5,GND*%
%TO.N,GND*%
X156910000Y-82900000D03*
%TO.P,U1,6,VOUT*%
%TO.N,Net-(J1-Pin_2)*%
X156910000Y-82200000D03*
D21*
%TO.P,U1,7,EN*%
%TO.N,Net-(U1-EN)*%
X156960000Y-81350000D03*
%TO.P,U1,8,ILIM*%
%TO.N,Net-(U1-ILIM)*%
X156460000Y-81350000D03*
%TO.P,U1,9,VIN*%
%TO.N,VBUS*%
X155960000Y-81350000D03*
%TO.P,U1,10,BOOT*%
%TO.N,Net-(U1-BOOT)*%
X155460000Y-81350000D03*
D23*
%TO.P,U1,11,SW*%
%TO.N,Net-(U1-SW)*%
X155510000Y-82550000D03*
%TD*%
D14*
%TO.P,R4,1*%
%TO.N,Net-(U1-SW)*%
X152920000Y-84900000D03*
%TO.P,R4,2*%
%TO.N,Net-(U1-FSW)*%
X152920000Y-86550000D03*
%TD*%
D24*
%TO.P,L1,1,1*%
%TO.N,VBUS*%
X143510000Y-87890000D03*
%TO.P,L1,2,2*%
%TO.N,Net-(U1-SW)*%
X143510000Y-82290000D03*
%TD*%
D14*
%TO.P,R6,1*%
%TO.N,Net-(U1-FB)*%
X157480000Y-85535000D03*
%TO.P,R6,2*%
%TO.N,GND*%
X157480000Y-87185000D03*
%TD*%
D25*
%TO.P,R5,1*%
%TO.N,Net-(J1-Pin_2)*%
X160020000Y-87185000D03*
%TO.P,R5,2*%
%TO.N,Net-(U1-FB)*%
X160020000Y-85535000D03*
%TD*%
D15*
%TO.P,C1,1*%
%TO.N,VBUS*%
X156070000Y-76835000D03*
%TO.P,C1,2*%
%TO.N,GND*%
X157620000Y-76835000D03*
%TD*%
%TO.P,C8,1*%
%TO.N,Net-(C8-Pad1)*%
X166117500Y-87155484D03*
%TO.P,C8,2*%
%TO.N,GND*%
X167667500Y-87155484D03*
%TD*%
D25*
%TO.P,R1,1*%
%TO.N,Net-(USB1-CC1)*%
X132080000Y-83375000D03*
%TO.P,R1,2*%
%TO.N,GND*%
X132080000Y-81725000D03*
%TD*%
D16*
%TO.P,C2,1*%
%TO.N,VBUS*%
X149230000Y-91440000D03*
%TO.P,C2,2*%
%TO.N,GND*%
X151130000Y-91440000D03*
%TD*%
D14*
%TO.P,R3,1*%
%TO.N,Net-(U1-COMP)*%
X162560000Y-85535000D03*
%TO.P,R3,2*%
%TO.N,Net-(C8-Pad1)*%
X162560000Y-87185000D03*
%TD*%
D26*
%TO.P,C5,1*%
%TO.N,Net-(U1-EN)*%
X153985000Y-88900000D03*
%TO.P,C5,2*%
%TO.N,GND*%
X152085000Y-88900000D03*
%TD*%
D16*
%TO.P,C4,1*%
%TO.N,VBUS*%
X149230000Y-97790000D03*
%TO.P,C4,2*%
%TO.N,GND*%
X151130000Y-97790000D03*
%TD*%
D27*
%TO.P,R7,1*%
%TO.N,Net-(U1-ILIM)*%
X157290000Y-78740000D03*
%TO.P,R7,2*%
%TO.N,GND*%
X158940000Y-78740000D03*
%TD*%
D10*
%TO.P,C10,1*%
%TO.N,Net-(J1-Pin_2)*%
X165100000Y-81285000D03*
%TO.P,C10,2*%
%TO.N,GND*%
X165100000Y-83185000D03*
%TD*%
D28*
%TO.N,GND*%
X179070000Y-96520000D03*
X175895000Y-96520000D03*
X172720000Y-96520000D03*
X179070000Y-93980000D03*
X175895000Y-93980000D03*
X172720000Y-93980000D03*
X179070000Y-91440000D03*
X175895000Y-91440000D03*
X172720000Y-91440000D03*
X179070000Y-88900000D03*
X175895000Y-88900000D03*
X172720000Y-88900000D03*
X179070000Y-86360000D03*
X175895000Y-86360000D03*
X172720000Y-86360000D03*
X163830000Y-97790000D03*
X161290000Y-97790000D03*
X153670000Y-97790000D03*
X156210000Y-97790000D03*
X158750000Y-97790000D03*
X163830000Y-94615000D03*
X161290000Y-94615000D03*
X153670000Y-94615000D03*
X156210000Y-94615000D03*
X158750000Y-94615000D03*
X163830000Y-91440000D03*
X161290000Y-91440000D03*
X158750000Y-91440000D03*
X156210000Y-91440000D03*
X153670000Y-91440000D03*
X177800000Y-76200000D03*
X175260000Y-76200000D03*
X172720000Y-76200000D03*
X170180000Y-76200000D03*
X167640000Y-76200000D03*
X165100000Y-76200000D03*
X162560000Y-76200000D03*
X160020000Y-76200000D03*
X133985000Y-83185000D03*
X133985000Y-81280000D03*
X133985000Y-77470000D03*
X133985000Y-79375000D03*
X132080000Y-79375000D03*
X132080000Y-77470000D03*
X130175000Y-77470000D03*
X130175000Y-79375000D03*
X130175000Y-81280000D03*
X130175000Y-83185000D03*
X133985000Y-96520000D03*
X133985000Y-98425000D03*
X132080000Y-99060000D03*
X130175000Y-98425000D03*
X130175000Y-96520000D03*
X130175000Y-86995000D03*
X130175000Y-88265000D03*
X130175000Y-89535000D03*
X130175000Y-90805000D03*
X130175000Y-92075000D03*
%TO.N,Net-(U1-EN)*%
X157480000Y-80010000D03*
X155415000Y-87470000D03*
%TO.N,Net-(J1-Pin_2)*%
X160020000Y-81915000D03*
X160020000Y-88265000D03*
%TD*%
D29*
%TO.N,Net-(U1-EN)*%
X156960000Y-80530000D02*
X157480000Y-80010000D01*
X156960000Y-81350000D02*
X156960000Y-80530000D01*
X155415000Y-87470000D02*
X155960000Y-86925000D01*
%TO.N,Net-(J1-Pin_2)*%
X160020000Y-87185000D02*
X160020000Y-88265000D01*
D30*
%TO.N,Net-(C8-Pad1)*%
X166087984Y-87185000D02*
X166117500Y-87155484D01*
D31*
X162560000Y-87185000D02*
X166087984Y-87185000D01*
D30*
%TO.N,VBUS*%
X155960000Y-76945000D02*
X156070000Y-76835000D01*
D29*
X155960000Y-81350000D02*
X155960000Y-76945000D01*
D30*
%TO.N,Net-(U1-COMP)*%
X165982984Y-85535000D02*
X166117500Y-85400484D01*
D31*
X162560000Y-85535000D02*
X165982984Y-85535000D01*
D30*
X165872984Y-85535000D02*
X166117500Y-85290484D01*
%TO.N,Net-(C8-Pad1)*%
X162589516Y-87155484D02*
X162560000Y-87185000D01*
%TO.N,Net-(U1-COMP)*%
X162844516Y-85250484D02*
X162560000Y-85535000D01*
D29*
X161480000Y-84455000D02*
X162560000Y-85535000D01*
X157665000Y-84455000D02*
X161480000Y-84455000D01*
X156960000Y-83750000D02*
X157665000Y-84455000D01*
%TO.N,Net-(U1-FB)*%
X156460000Y-84515000D02*
X157480000Y-85535000D01*
X156460000Y-83750000D02*
X156460000Y-84515000D01*
D31*
X157480000Y-85535000D02*
X160020000Y-85535000D01*
D29*
%TO.N,Net-(U1-EN)*%
X155960000Y-86925000D02*
X155960000Y-83750000D01*
X153985000Y-88900000D02*
X155415000Y-87470000D01*
%TO.N,Net-(U1-FSW)*%
X155460000Y-85205000D02*
X155460000Y-83750000D01*
X154115000Y-86550000D02*
X155460000Y-85205000D01*
X152920000Y-86550000D02*
X154115000Y-86550000D01*
%TO.N,Net-(U1-BOOT)*%
X155460000Y-80530000D02*
X155460000Y-81350000D01*
X154800000Y-79870000D02*
X155460000Y-80530000D01*
X153035000Y-79870000D02*
X154800000Y-79870000D01*
%TO.N,Net-(U1-ILIM)*%
X156460000Y-79570000D02*
X157290000Y-78740000D01*
X156460000Y-81350000D02*
X156460000Y-79570000D01*
D31*
%TO.N,Net-(USB1-CC1)*%
X133485000Y-89035000D02*
X132080000Y-87630000D01*
X134307500Y-89035000D02*
X133485000Y-89035000D01*
X132080000Y-87630000D02*
X132080000Y-83375000D01*
%TO.N,Net-(USB1-CC2)*%
X133607500Y-90035000D02*
X134307500Y-90035000D01*
X132080000Y-91562500D02*
X133607500Y-90035000D01*
X132080000Y-95695000D02*
X132080000Y-91562500D01*
%TD*%
%TA.AperFunction,Conductor*%
%TO.N,VBUS*%
G36*
X156788039Y-76219685D02*
G01*
X156833794Y-76272489D01*
X156845000Y-76324000D01*
X156845000Y-77961132D01*
X156825315Y-78028171D01*
X156795312Y-78060398D01*
X156732452Y-78107455D01*
X156646206Y-78222664D01*
X156646202Y-78222671D01*
X156595908Y-78357517D01*
X156589501Y-78417116D01*
X156589500Y-78417135D01*
X156589500Y-78616000D01*
X156569815Y-78683039D01*
X156517011Y-78728794D01*
X156465500Y-78740000D01*
X139065000Y-78740000D01*
X139065000Y-86360000D01*
X149736000Y-86360000D01*
X149803039Y-86379685D01*
X149848794Y-86432489D01*
X149860000Y-86484000D01*
X149860000Y-100206000D01*
X149840315Y-100273039D01*
X149787511Y-100318794D01*
X149736000Y-100330000D01*
X135379000Y-100330000D01*
X135311961Y-100310315D01*
X135266206Y-100257511D01*
X135255000Y-100206000D01*
X135255000Y-94645942D01*
X135274685Y-94578903D01*
X135310107Y-94542841D01*
X135408962Y-94476789D01*
X135520462Y-94365289D01*
X135608067Y-94234179D01*
X135668410Y-94088497D01*
X135699173Y-93933842D01*
X135699173Y-93776158D01*
X135699173Y-93776155D01*
X135699172Y-93776153D01*
X135668411Y-93621510D01*
X135668410Y-93621503D01*
X135655154Y-93589500D01*
X135608070Y-93475827D01*
X135608063Y-93475814D01*
X135520462Y-93344711D01*
X135520459Y-93344707D01*
X135408965Y-93233213D01*
X135408961Y-93233210D01*
X135310109Y-93167159D01*
X135305018Y-93161067D01*
X135297797Y-93157770D01*
X135282933Y-93134642D01*
X135265304Y-93113547D01*
X135263352Y-93104172D01*
X135260023Y-93098992D01*
X135255000Y-93064057D01*
X135255000Y-92905006D01*
X135274685Y-92837967D01*
X135291319Y-92817325D01*
X135300879Y-92807765D01*
X135346258Y-92704991D01*
X135349173Y-92679865D01*
X135349172Y-91790136D01*
X135347415Y-91774985D01*
X135346259Y-91765012D01*
X135346258Y-91765010D01*
X135346258Y-91765009D01*
X135300879Y-91662235D01*
X135291319Y-91652675D01*
X135257834Y-91591352D01*
X135255000Y-91564994D01*
X135255000Y-91440000D01*
X133474000Y-91440000D01*
X133465314Y-91437449D01*
X133456353Y-91438738D01*
X133432312Y-91427759D01*
X133406961Y-91420315D01*
X133401033Y-91413474D01*
X133392797Y-91409713D01*
X133378507Y-91387478D01*
X133361206Y-91367511D01*
X133358918Y-91356996D01*
X133355023Y-91350935D01*
X133350000Y-91316000D01*
X133350000Y-91122386D01*
X133369685Y-91055347D01*
X133386319Y-91034705D01*
X133540601Y-90880423D01*
X133751964Y-90669059D01*
X133813285Y-90635576D01*
X133882976Y-90640560D01*
X133889701Y-90643296D01*
X133978682Y-90682585D01*
X134003808Y-90685500D01*
X135093537Y-90685499D01*
X135093552Y-90685497D01*
X135093555Y-90685497D01*
X135118660Y-90682586D01*
X135118661Y-90682585D01*
X135118664Y-90682585D01*
X135221438Y-90637206D01*
X135300879Y-90557765D01*
X135346258Y-90454991D01*
X135349173Y-90429865D01*
X135349172Y-89640136D01*
X135349170Y-89640117D01*
X135346259Y-89615012D01*
X135346258Y-89615010D01*
X135346258Y-89615009D01*
X135337198Y-89594490D01*
X135333046Y-89585086D01*
X135323974Y-89515808D01*
X135333047Y-89484912D01*
X135346257Y-89454995D01*
X135346257Y-89454994D01*
X135346257Y-89454993D01*
X135346258Y-89454991D01*
X135349173Y-89429865D01*
X135349172Y-88640136D01*
X135349170Y-88640117D01*
X135346259Y-88615012D01*
X135346258Y-88615010D01*
X135346258Y-88615009D01*
X135300879Y-88512235D01*
X135221438Y-88432794D01*
X135221436Y-88432793D01*
X135118665Y-88387415D01*
X135093538Y-88384500D01*
X134003816Y-88384500D01*
X134003790Y-88384502D01*
X133978685Y-88387413D01*
X133978681Y-88387415D01*
X133875908Y-88432793D01*
X133875907Y-88432794D01*
X133860521Y-88448181D01*
X133833593Y-88462884D01*
X133807775Y-88479477D01*
X133801574Y-88480368D01*
X133799198Y-88481666D01*
X133772840Y-88484500D01*
X133764387Y-88484500D01*
X133697348Y-88464815D01*
X133676706Y-88448181D01*
X133386319Y-88157794D01*
X133352834Y-88096471D01*
X133350000Y-88070113D01*
X133350000Y-87754000D01*
X133369685Y-87686961D01*
X133422489Y-87641206D01*
X133474000Y-87630000D01*
X135255000Y-87630000D01*
X135255000Y-87505006D01*
X135274685Y-87437967D01*
X135291319Y-87417325D01*
X135300879Y-87407765D01*
X135346258Y-87304991D01*
X135349173Y-87279865D01*
X135349172Y-86390136D01*
X135347960Y-86379685D01*
X135346259Y-86365012D01*
X135346258Y-86365010D01*
X135346258Y-86365009D01*
X135300879Y-86262235D01*
X135291319Y-86252675D01*
X135276615Y-86225747D01*
X135260023Y-86199929D01*
X135259131Y-86193728D01*
X135257834Y-86191352D01*
X135255000Y-86164994D01*
X135255000Y-86005942D01*
X135274685Y-85938903D01*
X135310107Y-85902841D01*
X135408962Y-85836789D01*
X135520462Y-85725289D01*
X135608067Y-85594179D01*
X135608104Y-85594091D01*
X135662599Y-85462525D01*
X135668410Y-85448497D01*
X135699173Y-85293842D01*
X135699173Y-85136158D01*
X135699173Y-85136155D01*
X135699172Y-85136153D01*
X135690885Y-85094491D01*
X135668410Y-84981503D01*
X135666733Y-84977454D01*
X135608070Y-84835827D01*
X135608063Y-84835814D01*
X135520462Y-84704711D01*
X135520459Y-84704707D01*
X135408965Y-84593213D01*
X135408961Y-84593210D01*
X135310109Y-84527159D01*
X135265304Y-84473547D01*
X135255000Y-84424057D01*
X135255000Y-76324000D01*
X135274685Y-76256961D01*
X135327489Y-76211206D01*
X135379000Y-76200000D01*
X156721000Y-76200000D01*
X156788039Y-76219685D01*
G37*
%TD.AperFunction*%
%TD*%
%TA.AperFunction,Conductor*%
%TO.N,Net-(U1-SW)*%
G36*
X151708039Y-79394685D02*
G01*
X151753794Y-79447489D01*
X151765000Y-79499000D01*
X151765000Y-80010000D01*
X152400000Y-80645000D01*
X139700000Y-80645000D01*
X139700000Y-79499000D01*
X139719685Y-79431961D01*
X139772489Y-79386206D01*
X139824000Y-79375000D01*
X151641000Y-79375000D01*
X151708039Y-79394685D01*
G37*
%TD.AperFunction*%
%TD*%
%TA.AperFunction,Conductor*%
%TO.N,Net-(U1-SW)*%
G36*
X154320677Y-80664685D02*
G01*
X154341319Y-80681319D01*
X154903681Y-81243681D01*
X154937166Y-81305004D01*
X154940000Y-81331362D01*
X154940000Y-81915000D01*
X155140054Y-81915000D01*
X155190140Y-81925565D01*
X155240009Y-81947585D01*
X155265135Y-81950500D01*
X155654864Y-81950499D01*
X155654879Y-81950497D01*
X155654882Y-81950497D01*
X155689258Y-81946511D01*
X155689305Y-81946919D01*
X155714640Y-81944014D01*
X155733523Y-81944721D01*
X155740009Y-81947585D01*
X155765135Y-81950500D01*
X155887830Y-81950499D01*
X155890140Y-81950586D01*
X155921154Y-81960968D01*
X155952539Y-81970183D01*
X155954114Y-81972001D01*
X155956396Y-81972765D01*
X155976873Y-81998265D01*
X155998294Y-82022987D01*
X155998877Y-82025668D01*
X156000143Y-82027245D01*
X156001016Y-82035500D01*
X156009500Y-82074499D01*
X156009500Y-82469856D01*
X156009502Y-82469880D01*
X156012414Y-82494989D01*
X156012415Y-82494995D01*
X156014590Y-82499920D01*
X156023658Y-82569199D01*
X156014592Y-82600076D01*
X156012416Y-82605003D01*
X156012415Y-82605009D01*
X156009500Y-82630131D01*
X156009500Y-83025500D01*
X156007609Y-83031939D01*
X156008812Y-83038542D01*
X155997888Y-83065043D01*
X155989815Y-83092539D01*
X155984744Y-83096932D01*
X155982186Y-83103140D01*
X155958663Y-83119531D01*
X155937011Y-83138294D01*
X155929019Y-83140189D01*
X155924862Y-83143087D01*
X155899139Y-83147277D01*
X155890139Y-83149413D01*
X155887802Y-83149500D01*
X155765136Y-83149501D01*
X155740009Y-83152415D01*
X155733527Y-83155276D01*
X155714638Y-83155984D01*
X155697833Y-83151725D01*
X155689459Y-83151725D01*
X155689255Y-83153490D01*
X155679991Y-83152415D01*
X155654865Y-83149500D01*
X155265143Y-83149500D01*
X155265117Y-83149502D01*
X155240012Y-83152413D01*
X155240011Y-83152414D01*
X155240009Y-83152415D01*
X155190139Y-83174434D01*
X155140055Y-83185000D01*
X154940000Y-83185000D01*
X154940000Y-85036535D01*
X154920315Y-85103574D01*
X154903681Y-85124216D01*
X154339216Y-85688681D01*
X154277893Y-85722166D01*
X154251535Y-85725000D01*
X139824000Y-85725000D01*
X139756961Y-85705315D01*
X139711206Y-85652511D01*
X139700000Y-85601000D01*
X139700000Y-80645000D01*
X152400000Y-80645000D01*
X154253638Y-80645000D01*
X154320677Y-80664685D01*
G37*
%TD.AperFunction*%
%TD*%
%TA.AperFunction,Conductor*%
%TO.N,Net-(J1-Pin_2)*%
G36*
X179013039Y-78124685D02*
G01*
X179058794Y-78177489D01*
X179070000Y-78229000D01*
X179070000Y-82445881D01*
X179050315Y-82512920D01*
X178997511Y-82558675D01*
X178945882Y-82569881D01*
X172387912Y-82563622D01*
X172320891Y-82543873D01*
X172313114Y-82538432D01*
X172261185Y-82499052D01*
X172197343Y-82450639D01*
X172056561Y-82395122D01*
X172010926Y-82389642D01*
X171968102Y-82384500D01*
X170931898Y-82384500D01*
X170892853Y-82389188D01*
X170843438Y-82395122D01*
X170702656Y-82450639D01*
X170589252Y-82536637D01*
X170523941Y-82561460D01*
X170514209Y-82561833D01*
X169208911Y-82560587D01*
X169141890Y-82540838D01*
X169134114Y-82535399D01*
X169051623Y-82472843D01*
X169022341Y-82450638D01*
X168881561Y-82395122D01*
X168835926Y-82389642D01*
X168793102Y-82384500D01*
X167756898Y-82384500D01*
X167717853Y-82389188D01*
X167668438Y-82395122D01*
X167527656Y-82450639D01*
X167418243Y-82533611D01*
X167352932Y-82558434D01*
X167343200Y-82558807D01*
X166029910Y-82557553D01*
X165962889Y-82537804D01*
X165955114Y-82532365D01*
X165873742Y-82470659D01*
X165847341Y-82450638D01*
X165706561Y-82395122D01*
X165660926Y-82389642D01*
X165618102Y-82384500D01*
X164581898Y-82384500D01*
X164542853Y-82389188D01*
X164493438Y-82395122D01*
X164352656Y-82450639D01*
X164247233Y-82530584D01*
X164181921Y-82555407D01*
X164172190Y-82555780D01*
X162215110Y-82553913D01*
X162148089Y-82534164D01*
X162140314Y-82528725D01*
X162063444Y-82470433D01*
X162037341Y-82450638D01*
X161896561Y-82395122D01*
X161850926Y-82389642D01*
X161808102Y-82384500D01*
X160771898Y-82384500D01*
X160732853Y-82389188D01*
X160683438Y-82395122D01*
X160542654Y-82450640D01*
X160442021Y-82526952D01*
X160376710Y-82551775D01*
X160366979Y-82552148D01*
X158205267Y-82550086D01*
X158115000Y-82550000D01*
X158114941Y-82550000D01*
X157860287Y-82550000D01*
X157793248Y-82530315D01*
X157771496Y-82509194D01*
X157770331Y-82510360D01*
X157682765Y-82422794D01*
X157579992Y-82377415D01*
X157554868Y-82374500D01*
X157554865Y-82374500D01*
X156484499Y-82374500D01*
X156475813Y-82371949D01*
X156466852Y-82373238D01*
X156442811Y-82362259D01*
X156417460Y-82354815D01*
X156411532Y-82347974D01*
X156403296Y-82344213D01*
X156389006Y-82321978D01*
X156371705Y-82302011D01*
X156369417Y-82291496D01*
X156365522Y-82285435D01*
X156360499Y-82250500D01*
X156360499Y-82074499D01*
X156380184Y-82007460D01*
X156432988Y-81961705D01*
X156484499Y-81950499D01*
X156654856Y-81950499D01*
X156654864Y-81950499D01*
X156654879Y-81950497D01*
X156654882Y-81950497D01*
X156689258Y-81946511D01*
X156689463Y-81948281D01*
X156730540Y-81948281D01*
X156730745Y-81946510D01*
X156740007Y-81947584D01*
X156740009Y-81947585D01*
X156765135Y-81950500D01*
X157154864Y-81950499D01*
X157154879Y-81950497D01*
X157154882Y-81950497D01*
X157179987Y-81947586D01*
X157179987Y-81947585D01*
X157179991Y-81947585D01*
X157229860Y-81925565D01*
X157279945Y-81915000D01*
X158115000Y-81915000D01*
X159364302Y-80665697D01*
X159412766Y-80635744D01*
X161290000Y-80010000D01*
X161290000Y-79375000D01*
X161290000Y-78864000D01*
X161309685Y-78796961D01*
X161362489Y-78751206D01*
X161414000Y-78740000D01*
X163195000Y-78740000D01*
X163195000Y-78229000D01*
X163214685Y-78161961D01*
X163267489Y-78116206D01*
X163319000Y-78105000D01*
X178946000Y-78105000D01*
X179013039Y-78124685D01*
G37*
%TD.AperFunction*%
%TD*%
%TA.AperFunction,Conductor*%
%TO.N,GND*%
G36*
X180694727Y-74935613D02*
G01*
X180759187Y-74955699D01*
X180773163Y-74961000D01*
X181034743Y-75078727D01*
X181047989Y-75085680D01*
X181293465Y-75234075D01*
X181305776Y-75242573D01*
X181531573Y-75419473D01*
X181542781Y-75429403D01*
X181573681Y-75460303D01*
X181607166Y-75521626D01*
X181610000Y-75547984D01*
X181610000Y-99712016D01*
X181590315Y-99779055D01*
X181573684Y-99799693D01*
X181542782Y-99830596D01*
X181542780Y-99830598D01*
X181531573Y-99840526D01*
X181305782Y-100017422D01*
X181293459Y-100025928D01*
X181047995Y-100174316D01*
X181034736Y-100181275D01*
X180773168Y-100298997D01*
X180759168Y-100304306D01*
X180718032Y-100317124D01*
X180694732Y-100324385D01*
X180657843Y-100330000D01*
X150289500Y-100330000D01*
X150222461Y-100310315D01*
X150176706Y-100257511D01*
X150165500Y-100206000D01*
X150165500Y-86484010D01*
X150165500Y-86484000D01*
X150158518Y-86419059D01*
X150147312Y-86367548D01*
X150136354Y-86329342D01*
X150079675Y-86232429D01*
X150079672Y-86232426D01*
X150076337Y-86227770D01*
X150078263Y-86226389D01*
X150053490Y-86172172D01*
X150063419Y-86103011D01*
X150109164Y-86050198D01*
X150176199Y-86030500D01*
X152051393Y-86030500D01*
X152118432Y-86050185D01*
X152164187Y-86102989D01*
X152174131Y-86172147D01*
X152167575Y-86197833D01*
X152152998Y-86236917D01*
X152150909Y-86242517D01*
X152144500Y-86302127D01*
X152144500Y-86302134D01*
X152144500Y-86302135D01*
X152144500Y-86797870D01*
X152144501Y-86797876D01*
X152150908Y-86857483D01*
X152201202Y-86992328D01*
X152201206Y-86992335D01*
X152287452Y-87107544D01*
X152287455Y-87107547D01*
X152402664Y-87193793D01*
X152402671Y-87193797D01*
X152447618Y-87210561D01*
X152537517Y-87244091D01*
X152597127Y-87250500D01*
X153242872Y-87250499D01*
X153302483Y-87244091D01*
X153437331Y-87193796D01*
X153552546Y-87107546D01*
X153579227Y-87071903D01*
X153595485Y-87050188D01*
X153651419Y-87008318D01*
X153694751Y-87000500D01*
X154174307Y-87000500D01*
X154174309Y-87000500D01*
X154260530Y-86977397D01*
X154278751Y-86972515D01*
X154278753Y-86972514D01*
X154288887Y-86969799D01*
X154391614Y-86910489D01*
X155297819Y-86004284D01*
X155359142Y-85970799D01*
X155428834Y-85975783D01*
X155484767Y-86017655D01*
X155509184Y-86083119D01*
X155509500Y-86091965D01*
X155509500Y-86687035D01*
X155500855Y-86716472D01*
X155494332Y-86746463D01*
X155490577Y-86751478D01*
X155489815Y-86754074D01*
X155473180Y-86774717D01*
X155414596Y-86833300D01*
X155353273Y-86866784D01*
X155343107Y-86868556D01*
X155335949Y-86869498D01*
X155183216Y-86910423D01*
X155183209Y-86910426D01*
X155046290Y-86989475D01*
X155046282Y-86989481D01*
X154934481Y-87101282D01*
X154934475Y-87101290D01*
X154855426Y-87238209D01*
X154855423Y-87238216D01*
X154814498Y-87390949D01*
X154813556Y-87398107D01*
X154785287Y-87462003D01*
X154778299Y-87469597D01*
X154405800Y-87842095D01*
X154344477Y-87875580D01*
X154303339Y-87877530D01*
X154289909Y-87875917D01*
X154278102Y-87874500D01*
X153691898Y-87874500D01*
X153653684Y-87879089D01*
X153603438Y-87885122D01*
X153462656Y-87940639D01*
X153342077Y-88032077D01*
X153250639Y-88152656D01*
X153195122Y-88293438D01*
X153189188Y-88342853D01*
X153184500Y-88381898D01*
X153184500Y-89418102D01*
X153190126Y-89464954D01*
X153195122Y-89506561D01*
X153250639Y-89647343D01*
X153342077Y-89767922D01*
X153462656Y-89859360D01*
X153462657Y-89859360D01*
X153462658Y-89859361D01*
X153603436Y-89914877D01*
X153691898Y-89925500D01*
X153691903Y-89925500D01*
X154278097Y-89925500D01*
X154278102Y-89925500D01*
X154366564Y-89914877D01*
X154507342Y-89859361D01*
X154627922Y-89767922D01*
X154719361Y-89647342D01*
X154774877Y-89506564D01*
X154785500Y-89418102D01*
X154785500Y-88787965D01*
X154805185Y-88720926D01*
X154821819Y-88700284D01*
X155025320Y-88496783D01*
X155415404Y-88106698D01*
X155476725Y-88073215D01*
X155486901Y-88071441D01*
X155494045Y-88070500D01*
X155494057Y-88070500D01*
X155646784Y-88029577D01*
X155783716Y-87950520D01*
X155895520Y-87838716D01*
X155974577Y-87701784D01*
X156015500Y-87549057D01*
X156015500Y-87549044D01*
X156016441Y-87541901D01*
X156044707Y-87478003D01*
X156051688Y-87470414D01*
X156320489Y-87201614D01*
X156325004Y-87193793D01*
X156364323Y-87125692D01*
X156364324Y-87125689D01*
X156379799Y-87098886D01*
X156410500Y-86984309D01*
X156410500Y-86937127D01*
X159244500Y-86937127D01*
X159244500Y-86937134D01*
X159244500Y-86937135D01*
X159244500Y-87432870D01*
X159244501Y-87432876D01*
X159250908Y-87492483D01*
X159301202Y-87627328D01*
X159301206Y-87627335D01*
X159356944Y-87701790D01*
X159387454Y-87742546D01*
X159467472Y-87802448D01*
X159509343Y-87858381D01*
X159514327Y-87928073D01*
X159500549Y-87963712D01*
X159460425Y-88033211D01*
X159460423Y-88033216D01*
X159419500Y-88185943D01*
X159419500Y-88344057D01*
X159429640Y-88381898D01*
X159460423Y-88496783D01*
X159460426Y-88496790D01*
X159539475Y-88633709D01*
X159539479Y-88633714D01*
X159539480Y-88633716D01*
X159651284Y-88745520D01*
X159651286Y-88745521D01*
X159651290Y-88745524D01*
X159788209Y-88824573D01*
X159788216Y-88824577D01*
X159940943Y-88865500D01*
X159940945Y-88865500D01*
X160099055Y-88865500D01*
X160099057Y-88865500D01*
X160251784Y-88824577D01*
X160388716Y-88745520D01*
X160500520Y-88633716D01*
X160579577Y-88496784D01*
X160620500Y-88344057D01*
X160620500Y-88185943D01*
X160579577Y-88033216D01*
X160541934Y-87968015D01*
X160539450Y-87963713D01*
X160522979Y-87895813D01*
X160545831Y-87829786D01*
X160572522Y-87802451D01*
X160652546Y-87742546D01*
X160738796Y-87627331D01*
X160789091Y-87492483D01*
X160795500Y-87432873D01*
X160795499Y-86937128D01*
X160789091Y-86877517D01*
X160784176Y-86864340D01*
X160738797Y-86742671D01*
X160738793Y-86742664D01*
X160652547Y-86627455D01*
X160652544Y-86627452D01*
X160537335Y-86541206D01*
X160537328Y-86541202D01*
X160402486Y-86490910D01*
X160402485Y-86490909D01*
X160402483Y-86490909D01*
X160342873Y-86484500D01*
X160342863Y-86484500D01*
X159697129Y-86484500D01*
X159697123Y-86484501D01*
X159637516Y-86490908D01*
X159502671Y-86541202D01*
X159502664Y-86541206D01*
X159387455Y-86627452D01*
X159387452Y-86627455D01*
X159301206Y-86742664D01*
X159301202Y-86742671D01*
X159253899Y-86869500D01*
X159250909Y-86877517D01*
X159244500Y-86937127D01*
X156410500Y-86937127D01*
X156410500Y-85401965D01*
X156416738Y-85380719D01*
X156418318Y-85358631D01*
X156426390Y-85347847D01*
X156430185Y-85334926D01*
X156446918Y-85320426D01*
X156460190Y-85302698D01*
X156472810Y-85297990D01*
X156482989Y-85289171D01*
X156504906Y-85286019D01*
X156525654Y-85278281D01*
X156538814Y-85281143D01*
X156552147Y-85279227D01*
X156572290Y-85288426D01*
X156593927Y-85293133D01*
X156611652Y-85306401D01*
X156615703Y-85308252D01*
X156622181Y-85314284D01*
X156668181Y-85360284D01*
X156701666Y-85421607D01*
X156704500Y-85447965D01*
X156704500Y-85782869D01*
X156704501Y-85782876D01*
X156710908Y-85842483D01*
X156761202Y-85977328D01*
X156761206Y-85977335D01*
X156847452Y-86092544D01*
X156847455Y-86092547D01*
X156962664Y-86178793D01*
X156962671Y-86178797D01*
X156979981Y-86185253D01*
X157097517Y-86229091D01*
X157157127Y-86235500D01*
X157802872Y-86235499D01*
X157862483Y-86229091D01*
X157997331Y-86178796D01*
X158064132Y-86128789D01*
X158088920Y-86110233D01*
X158154385Y-86085816D01*
X158163231Y-86085500D01*
X159336769Y-86085500D01*
X159403808Y-86105185D01*
X159411080Y-86110233D01*
X159435868Y-86128789D01*
X159493820Y-86172172D01*
X159502668Y-86178795D01*
X159502671Y-86178797D01*
X159519981Y-86185253D01*
X159637517Y-86229091D01*
X159697127Y-86235500D01*
X160342872Y-86235499D01*
X160402483Y-86229091D01*
X160537331Y-86178796D01*
X160652546Y-86092546D01*
X160738796Y-85977331D01*
X160789091Y-85842483D01*
X160795500Y-85782873D01*
X160795499Y-85287128D01*
X160789091Y-85227517D01*
X160755014Y-85136153D01*
X160738796Y-85092669D01*
X160736754Y-85088929D01*
X160735847Y-85084762D01*
X160735697Y-85084359D01*
X160735755Y-85084337D01*
X160721901Y-85020657D01*
X160746316Y-84955192D01*
X160802249Y-84913319D01*
X160845585Y-84905500D01*
X161242035Y-84905500D01*
X161309074Y-84925185D01*
X161329716Y-84941819D01*
X161748181Y-85360284D01*
X161781666Y-85421607D01*
X161784500Y-85447965D01*
X161784500Y-85782869D01*
X161784501Y-85782876D01*
X161790908Y-85842483D01*
X161841202Y-85977328D01*
X161841206Y-85977335D01*
X161927452Y-86092544D01*
X161927455Y-86092547D01*
X162042664Y-86178793D01*
X162042671Y-86178797D01*
X162059981Y-86185253D01*
X162177517Y-86229091D01*
X162237127Y-86235500D01*
X162882872Y-86235499D01*
X162942483Y-86229091D01*
X163077331Y-86178796D01*
X163144132Y-86128789D01*
X163168920Y-86110233D01*
X163234385Y-86085816D01*
X163243231Y-86085500D01*
X165554762Y-86085500D01*
X165603942Y-86095670D01*
X165617726Y-86101625D01*
X165632525Y-86112848D01*
X165760609Y-86163358D01*
X165762451Y-86164154D01*
X165787838Y-86185253D01*
X165813905Y-86205535D01*
X165814592Y-86207489D01*
X165816185Y-86208813D01*
X165826138Y-86240297D01*
X165837098Y-86271443D01*
X165836620Y-86273457D01*
X165837245Y-86275433D01*
X165828593Y-86307309D01*
X165820977Y-86339428D01*
X165819485Y-86340864D01*
X165818943Y-86342864D01*
X165794429Y-86365004D01*
X165770660Y-86387904D01*
X165767453Y-86389368D01*
X165767092Y-86389695D01*
X165766538Y-86389786D01*
X165758761Y-86393338D01*
X165632527Y-86443118D01*
X165632526Y-86443118D01*
X165517426Y-86530402D01*
X165517425Y-86530403D01*
X165517423Y-86530404D01*
X165517422Y-86530406D01*
X165475696Y-86585428D01*
X165419507Y-86626949D01*
X165376896Y-86634500D01*
X163243231Y-86634500D01*
X163176192Y-86614815D01*
X163168920Y-86609767D01*
X163077331Y-86541204D01*
X163077328Y-86541202D01*
X162942486Y-86490910D01*
X162942485Y-86490909D01*
X162942483Y-86490909D01*
X162882873Y-86484500D01*
X162882863Y-86484500D01*
X162237129Y-86484500D01*
X162237123Y-86484501D01*
X162177516Y-86490908D01*
X162042671Y-86541202D01*
X162042664Y-86541206D01*
X161927455Y-86627452D01*
X161927452Y-86627455D01*
X161841206Y-86742664D01*
X161841202Y-86742671D01*
X161793899Y-86869500D01*
X161790909Y-86877517D01*
X161784500Y-86937127D01*
X161784500Y-86937134D01*
X161784500Y-86937135D01*
X161784500Y-87432870D01*
X161784501Y-87432876D01*
X161790908Y-87492483D01*
X161841202Y-87627328D01*
X161841206Y-87627335D01*
X161927452Y-87742544D01*
X161927455Y-87742547D01*
X162042664Y-87828793D01*
X162042671Y-87828797D01*
X162078325Y-87842095D01*
X162177517Y-87879091D01*
X162237127Y-87885500D01*
X162882872Y-87885499D01*
X162942483Y-87879091D01*
X163077331Y-87828796D01*
X163148632Y-87775420D01*
X163168920Y-87760233D01*
X163234385Y-87735816D01*
X163243231Y-87735500D01*
X165421661Y-87735500D01*
X165488700Y-87755185D01*
X165510568Y-87775420D01*
X165511424Y-87774565D01*
X165517420Y-87780561D01*
X165632523Y-87867847D01*
X165632524Y-87867847D01*
X165632525Y-87867848D01*
X165766910Y-87920843D01*
X165851356Y-87930984D01*
X165851362Y-87930984D01*
X166383638Y-87930984D01*
X166383644Y-87930984D01*
X166468090Y-87920843D01*
X166602475Y-87867848D01*
X166717578Y-87780562D01*
X166804864Y-87665459D01*
X166857859Y-87531074D01*
X166868000Y-87446628D01*
X166868000Y-86864340D01*
X166857859Y-86779894D01*
X166804864Y-86645509D01*
X166804863Y-86645508D01*
X166804863Y-86645507D01*
X166717578Y-86530405D01*
X166602476Y-86443120D01*
X166561464Y-86426947D01*
X166476235Y-86393337D01*
X166421094Y-86350433D01*
X166397901Y-86284525D01*
X166414021Y-86216541D01*
X166464338Y-86168064D01*
X166476224Y-86162635D01*
X166602475Y-86112848D01*
X166717578Y-86025562D01*
X166804864Y-85910459D01*
X166857859Y-85776074D01*
X166868000Y-85691628D01*
X166868000Y-85109340D01*
X166857859Y-85024894D01*
X166804864Y-84890509D01*
X166804863Y-84890508D01*
X166804863Y-84890507D01*
X166717578Y-84775405D01*
X166602476Y-84688120D01*
X166468088Y-84635124D01*
X166424742Y-84629919D01*
X166383644Y-84624984D01*
X165851356Y-84624984D01*
X165813341Y-84629549D01*
X165766911Y-84635124D01*
X165632523Y-84688120D01*
X165517421Y-84775405D01*
X165430135Y-84890509D01*
X165424030Y-84905991D01*
X165381124Y-84961135D01*
X165315216Y-84984327D01*
X165308676Y-84984500D01*
X163243231Y-84984500D01*
X163176192Y-84964815D01*
X163168920Y-84959767D01*
X163077331Y-84891204D01*
X163077328Y-84891202D01*
X162942482Y-84840908D01*
X162942483Y-84840908D01*
X162882883Y-84834501D01*
X162882881Y-84834500D01*
X162882873Y-84834500D01*
X162882865Y-84834500D01*
X162547966Y-84834500D01*
X162480927Y-84814815D01*
X162460285Y-84798181D01*
X161756616Y-84094513D01*
X161756614Y-84094511D01*
X161653887Y-84035201D01*
X161621839Y-84026614D01*
X161621836Y-84026613D01*
X161586956Y-84017267D01*
X161539309Y-84004500D01*
X161539308Y-84004500D01*
X157902965Y-84004500D01*
X157835926Y-83984815D01*
X157815284Y-83968181D01*
X157446818Y-83599715D01*
X157413333Y-83538392D01*
X157410499Y-83512034D01*
X157410499Y-83405143D01*
X157410499Y-83405136D01*
X157410497Y-83405117D01*
X157407586Y-83380012D01*
X157407585Y-83380010D01*
X157407585Y-83380009D01*
X157362206Y-83277235D01*
X157282765Y-83197794D01*
X157179992Y-83152415D01*
X157154865Y-83149500D01*
X156765143Y-83149500D01*
X156765117Y-83149502D01*
X156730742Y-83153489D01*
X156730700Y-83153132D01*
X156706387Y-83156018D01*
X156686862Y-83155449D01*
X156679991Y-83152415D01*
X156654865Y-83149500D01*
X156482707Y-83149500D01*
X156480888Y-83149447D01*
X156449322Y-83139170D01*
X156417461Y-83129815D01*
X156416233Y-83128398D01*
X156414451Y-83127818D01*
X156393443Y-83102097D01*
X156371706Y-83077011D01*
X156371252Y-83074928D01*
X156370253Y-83073704D01*
X156369442Y-83066608D01*
X156360500Y-83025501D01*
X156360499Y-82849500D01*
X156380183Y-82782460D01*
X156432987Y-82736705D01*
X156484499Y-82725499D01*
X157506506Y-82725499D01*
X157573545Y-82745184D01*
X157587603Y-82755695D01*
X157604539Y-82770339D01*
X157607101Y-82772554D01*
X157638956Y-82788751D01*
X157707176Y-82823439D01*
X157774215Y-82843124D01*
X157860287Y-82855500D01*
X157860290Y-82855500D01*
X158114650Y-82855500D01*
X160366688Y-82857648D01*
X160372684Y-82857536D01*
X160378654Y-82857425D01*
X160378679Y-82857424D01*
X160378681Y-82857424D01*
X160388412Y-82857051D01*
X160485247Y-82837344D01*
X160550558Y-82812521D01*
X160550561Y-82812519D01*
X160550564Y-82812518D01*
X160592002Y-82789556D01*
X160626615Y-82770376D01*
X160680208Y-82729735D01*
X160709640Y-82713185D01*
X160744067Y-82699608D01*
X160774774Y-82691848D01*
X160782819Y-82690882D01*
X160797594Y-82690000D01*
X161782406Y-82690000D01*
X161797183Y-82690884D01*
X161805223Y-82691849D01*
X161835937Y-82699611D01*
X161870350Y-82713182D01*
X161899784Y-82729732D01*
X161955735Y-82772161D01*
X161965169Y-82779033D01*
X161965182Y-82779042D01*
X161965197Y-82779053D01*
X161972972Y-82784492D01*
X162061739Y-82827206D01*
X162128760Y-82846955D01*
X162214819Y-82859413D01*
X164171899Y-82861280D01*
X164177895Y-82861168D01*
X164183865Y-82861057D01*
X164183890Y-82861056D01*
X164183892Y-82861056D01*
X164193623Y-82860683D01*
X164290457Y-82840977D01*
X164326693Y-82827205D01*
X164355762Y-82816157D01*
X164355763Y-82816155D01*
X164355769Y-82816154D01*
X164431828Y-82774008D01*
X164464157Y-82749492D01*
X164490216Y-82729731D01*
X164519643Y-82713183D01*
X164554068Y-82699608D01*
X164584776Y-82691848D01*
X164588087Y-82691451D01*
X164592823Y-82690883D01*
X164607593Y-82690000D01*
X165592406Y-82690000D01*
X165607183Y-82690884D01*
X165615223Y-82691849D01*
X165645937Y-82699611D01*
X165680350Y-82713182D01*
X165709784Y-82729732D01*
X165770535Y-82775801D01*
X165779969Y-82782673D01*
X165779982Y-82782682D01*
X165779997Y-82782693D01*
X165787772Y-82788132D01*
X165876539Y-82830846D01*
X165943560Y-82850595D01*
X166029618Y-82863053D01*
X167342908Y-82864307D01*
X167348904Y-82864195D01*
X167354873Y-82864084D01*
X167354898Y-82864083D01*
X167354900Y-82864083D01*
X167364632Y-82863710D01*
X167461469Y-82844003D01*
X167505666Y-82827205D01*
X167526773Y-82819183D01*
X167526774Y-82819181D01*
X167526780Y-82819180D01*
X167602839Y-82777033D01*
X167604464Y-82775801D01*
X167665209Y-82729735D01*
X167694646Y-82713183D01*
X167729062Y-82699611D01*
X167759772Y-82691849D01*
X167767819Y-82690882D01*
X167782593Y-82690000D01*
X168767406Y-82690000D01*
X168782179Y-82690883D01*
X168785049Y-82691227D01*
X168790224Y-82691848D01*
X168820938Y-82699611D01*
X168855349Y-82713181D01*
X168884785Y-82729732D01*
X168943162Y-82774001D01*
X168949519Y-82778822D01*
X168959012Y-82785738D01*
X168966788Y-82791177D01*
X169055540Y-82833880D01*
X169122561Y-82853629D01*
X169208619Y-82866087D01*
X170513917Y-82867333D01*
X170519913Y-82867221D01*
X170525882Y-82867110D01*
X170525907Y-82867109D01*
X170525909Y-82867109D01*
X170535641Y-82866736D01*
X170632478Y-82847029D01*
X170697789Y-82822206D01*
X170773848Y-82780060D01*
X170840215Y-82729731D01*
X170869642Y-82713184D01*
X170904068Y-82699608D01*
X170934776Y-82691848D01*
X170938087Y-82691451D01*
X170942823Y-82690883D01*
X170957593Y-82690000D01*
X171942405Y-82690000D01*
X171957184Y-82690884D01*
X171965223Y-82691849D01*
X171995932Y-82699609D01*
X172030349Y-82713181D01*
X172059783Y-82729732D01*
X172116253Y-82772554D01*
X172128518Y-82781855D01*
X172137984Y-82788751D01*
X172145761Y-82794192D01*
X172191399Y-82816154D01*
X172234536Y-82836913D01*
X172234537Y-82836913D01*
X172234541Y-82836915D01*
X172301562Y-82856664D01*
X172387620Y-82869122D01*
X178945590Y-82875381D01*
X179010682Y-82868430D01*
X179010684Y-82868429D01*
X179010689Y-82868429D01*
X179062281Y-82857231D01*
X179062292Y-82857227D01*
X179062311Y-82857224D01*
X179100658Y-82846235D01*
X179104475Y-82844003D01*
X179116594Y-82836915D01*
X179197571Y-82789556D01*
X179250375Y-82743801D01*
X179250382Y-82743793D01*
X179250387Y-82743789D01*
X179292548Y-82699073D01*
X179292553Y-82699068D01*
X179343439Y-82598992D01*
X179363124Y-82531953D01*
X179375500Y-82445881D01*
X179375500Y-78229000D01*
X179368518Y-78164059D01*
X179357312Y-78112548D01*
X179346354Y-78074342D01*
X179289675Y-77977429D01*
X179243920Y-77924625D01*
X179243918Y-77924623D01*
X179243908Y-77924612D01*
X179199192Y-77882451D01*
X179199189Y-77882449D01*
X179199187Y-77882447D01*
X179099111Y-77831561D01*
X179099110Y-77831560D01*
X179099109Y-77831560D01*
X179032078Y-77811877D01*
X179032072Y-77811876D01*
X178946000Y-77799500D01*
X163319000Y-77799500D01*
X163318991Y-77799500D01*
X163318990Y-77799501D01*
X163254064Y-77806481D01*
X163254052Y-77806483D01*
X163202546Y-77817688D01*
X163164345Y-77828644D01*
X163164341Y-77828646D01*
X163067431Y-77885323D01*
X163067428Y-77885325D01*
X163014623Y-77931081D01*
X163014612Y-77931091D01*
X162972451Y-77975807D01*
X162972445Y-77975816D01*
X162921560Y-78075890D01*
X162901877Y-78142921D01*
X162901876Y-78142928D01*
X162889502Y-78228990D01*
X162889500Y-78229002D01*
X162889500Y-78310500D01*
X162869815Y-78377539D01*
X162817011Y-78423294D01*
X162765500Y-78434500D01*
X161414000Y-78434500D01*
X161413991Y-78434500D01*
X161413990Y-78434501D01*
X161349064Y-78441481D01*
X161349052Y-78441483D01*
X161297546Y-78452688D01*
X161259345Y-78463644D01*
X161259341Y-78463646D01*
X161162431Y-78520323D01*
X161162428Y-78520325D01*
X161109623Y-78566081D01*
X161109612Y-78566091D01*
X161067451Y-78610807D01*
X161067445Y-78610816D01*
X161016560Y-78710890D01*
X160996877Y-78777921D01*
X160984500Y-78864002D01*
X160984500Y-79700432D01*
X160964815Y-79767471D01*
X160912011Y-79813226D01*
X160899712Y-79818069D01*
X159316164Y-80345919D01*
X159316157Y-80345922D01*
X159252146Y-80375875D01*
X159203696Y-80405819D01*
X159203695Y-80405820D01*
X159148277Y-80449678D01*
X159148274Y-80449681D01*
X158024777Y-81573181D01*
X157963454Y-81606666D01*
X157937096Y-81609500D01*
X157534500Y-81609500D01*
X157467461Y-81589815D01*
X157421706Y-81537011D01*
X157410500Y-81485500D01*
X157410500Y-80767965D01*
X157419144Y-80738525D01*
X157425667Y-80708540D01*
X157429422Y-80703522D01*
X157430185Y-80700926D01*
X157446812Y-80680290D01*
X157480404Y-80646698D01*
X157541723Y-80613215D01*
X157551901Y-80611441D01*
X157559045Y-80610500D01*
X157559057Y-80610500D01*
X157711784Y-80569577D01*
X157848716Y-80490520D01*
X157960520Y-80378716D01*
X158039577Y-80241784D01*
X158080500Y-80089057D01*
X158080500Y-79930943D01*
X158039577Y-79778216D01*
X158039573Y-79778209D01*
X157960524Y-79641290D01*
X157960518Y-79641282D01*
X157856837Y-79537601D01*
X157823352Y-79476278D01*
X157828336Y-79406586D01*
X157845252Y-79375608D01*
X157847541Y-79372549D01*
X157847546Y-79372546D01*
X157933796Y-79257331D01*
X157984091Y-79122483D01*
X157990500Y-79062873D01*
X157990499Y-78417128D01*
X157984091Y-78357517D01*
X157936157Y-78229000D01*
X157933797Y-78222671D01*
X157933793Y-78222664D01*
X157847547Y-78107455D01*
X157847544Y-78107452D01*
X157732335Y-78021206D01*
X157732328Y-78021202D01*
X157597482Y-77970908D01*
X157597483Y-77970908D01*
X157537883Y-77964501D01*
X157537881Y-77964500D01*
X157537873Y-77964500D01*
X157537865Y-77964500D01*
X157274500Y-77964500D01*
X157207461Y-77944815D01*
X157161706Y-77892011D01*
X157150500Y-77840500D01*
X157150500Y-76324010D01*
X157150500Y-76324000D01*
X157143518Y-76259059D01*
X157132312Y-76207548D01*
X157121354Y-76169342D01*
X157064675Y-76072429D01*
X157018920Y-76019625D01*
X157018918Y-76019623D01*
X157018908Y-76019612D01*
X156974192Y-75977451D01*
X156974189Y-75977449D01*
X156974187Y-75977447D01*
X156874111Y-75926561D01*
X156874110Y-75926560D01*
X156874109Y-75926560D01*
X156807078Y-75906877D01*
X156807072Y-75906876D01*
X156721000Y-75894500D01*
X135379000Y-75894500D01*
X135378991Y-75894500D01*
X135378990Y-75894501D01*
X135314064Y-75901481D01*
X135314052Y-75901483D01*
X135262546Y-75912688D01*
X135224345Y-75923644D01*
X135224341Y-75923646D01*
X135127431Y-75980323D01*
X135127428Y-75980325D01*
X135074623Y-76026081D01*
X135074612Y-76026091D01*
X135032451Y-76070807D01*
X135032445Y-76070816D01*
X134981560Y-76170890D01*
X134961877Y-76237921D01*
X134961876Y-76237928D01*
X134949502Y-76323990D01*
X134949500Y-76324002D01*
X134949500Y-84290500D01*
X134929815Y-84357539D01*
X134877011Y-84403294D01*
X134825500Y-84414500D01*
X134019828Y-84414500D01*
X133865183Y-84445261D01*
X133865171Y-84445264D01*
X133719500Y-84505602D01*
X133719487Y-84505609D01*
X133588384Y-84593210D01*
X133588380Y-84593213D01*
X133476886Y-84704707D01*
X133476883Y-84704711D01*
X133389282Y-84835814D01*
X133389275Y-84835827D01*
X133328937Y-84981498D01*
X133328934Y-84981510D01*
X133298173Y-85136153D01*
X133298173Y-85293846D01*
X133328934Y-85448489D01*
X133328937Y-85448501D01*
X133389275Y-85594172D01*
X133389282Y-85594185D01*
X133476883Y-85725288D01*
X133476886Y-85725292D01*
X133588380Y-85836786D01*
X133588384Y-85836789D01*
X133719487Y-85924390D01*
X133719500Y-85924397D01*
X133811266Y-85962407D01*
X133865176Y-85984737D01*
X133963445Y-86004284D01*
X134019826Y-86015499D01*
X134019829Y-86015500D01*
X134019831Y-86015500D01*
X134825500Y-86015500D01*
X134832424Y-86017533D01*
X134839534Y-86016297D01*
X134865502Y-86027246D01*
X134892539Y-86035185D01*
X134897263Y-86040637D01*
X134903915Y-86043442D01*
X134919845Y-86066697D01*
X134938294Y-86087989D01*
X134940285Y-86096538D01*
X134943400Y-86101085D01*
X134947799Y-86128789D01*
X134949446Y-86135858D01*
X134949500Y-86137695D01*
X134949500Y-86164994D01*
X134951251Y-86197653D01*
X134951265Y-86197789D01*
X134951316Y-86199501D01*
X134951526Y-86200960D01*
X134952078Y-86205348D01*
X134954086Y-86224021D01*
X134954915Y-86230980D01*
X134956223Y-86236917D01*
X134956034Y-86236958D01*
X134957623Y-86243358D01*
X134960709Y-86261098D01*
X134960710Y-86261100D01*
X134980846Y-86310594D01*
X134989684Y-86337728D01*
X134990981Y-86340104D01*
X134992512Y-86339268D01*
X134993975Y-86342864D01*
X135000976Y-86360071D01*
X135003019Y-86365094D01*
X135003020Y-86365096D01*
X135011317Y-86378006D01*
X135014839Y-86383832D01*
X135015357Y-86384744D01*
X135023189Y-86399087D01*
X135024466Y-86400793D01*
X135027511Y-86406157D01*
X135034750Y-86436982D01*
X135043672Y-86467353D01*
X135043672Y-87200029D01*
X135030250Y-87256139D01*
X135030009Y-87256612D01*
X134982122Y-87307487D01*
X134919433Y-87324500D01*
X133474000Y-87324500D01*
X133473991Y-87324500D01*
X133473990Y-87324501D01*
X133409064Y-87331481D01*
X133409052Y-87331483D01*
X133357546Y-87342688D01*
X133319345Y-87353644D01*
X133319341Y-87353646D01*
X133222431Y-87410323D01*
X133222428Y-87410325D01*
X133169623Y-87456081D01*
X133169612Y-87456091D01*
X133127451Y-87500807D01*
X133127445Y-87500816D01*
X133076557Y-87600897D01*
X133075901Y-87602549D01*
X133075375Y-87603220D01*
X133073963Y-87605999D01*
X133073419Y-87605722D01*
X133032859Y-87657586D01*
X132966894Y-87680616D01*
X132898949Y-87664327D01*
X132872979Y-87644454D01*
X132666819Y-87438294D01*
X132633334Y-87376971D01*
X132630500Y-87350613D01*
X132630500Y-84056034D01*
X132650185Y-83988995D01*
X132680185Y-83956770D01*
X132712546Y-83932546D01*
X132798796Y-83817331D01*
X132849091Y-83682483D01*
X132855500Y-83622873D01*
X132855499Y-83127128D01*
X132849091Y-83067517D01*
X132798796Y-82932669D01*
X132798795Y-82932668D01*
X132798793Y-82932664D01*
X132712547Y-82817455D01*
X132712544Y-82817452D01*
X132597335Y-82731206D01*
X132597328Y-82731202D01*
X132462486Y-82680910D01*
X132462485Y-82680909D01*
X132462483Y-82680909D01*
X132402873Y-82674500D01*
X132402863Y-82674500D01*
X131757129Y-82674500D01*
X131757123Y-82674501D01*
X131697516Y-82680908D01*
X131562671Y-82731202D01*
X131562664Y-82731206D01*
X131447455Y-82817452D01*
X131447452Y-82817455D01*
X131361206Y-82932664D01*
X131361202Y-82932671D01*
X131311248Y-83066608D01*
X131310909Y-83067517D01*
X131304500Y-83127127D01*
X131304500Y-83127134D01*
X131304500Y-83127135D01*
X131304500Y-83622870D01*
X131304501Y-83622876D01*
X131310908Y-83682483D01*
X131361202Y-83817328D01*
X131361203Y-83817329D01*
X131361204Y-83817331D01*
X131447452Y-83932543D01*
X131447451Y-83932543D01*
X131447452Y-83932544D01*
X131447454Y-83932546D01*
X131479812Y-83956769D01*
X131521681Y-84012700D01*
X131529500Y-84056034D01*
X131529500Y-84345562D01*
X131509815Y-84412601D01*
X131457011Y-84458356D01*
X131387853Y-84468300D01*
X131358049Y-84460124D01*
X131322170Y-84445263D01*
X131322162Y-84445261D01*
X131167518Y-84414500D01*
X131167515Y-84414500D01*
X130209831Y-84414500D01*
X130209828Y-84414500D01*
X130055183Y-84445261D01*
X130055171Y-84445264D01*
X129909500Y-84505602D01*
X129909487Y-84505609D01*
X129778384Y-84593210D01*
X129778380Y-84593213D01*
X129666886Y-84704707D01*
X129666883Y-84704711D01*
X129579282Y-84835814D01*
X129579275Y-84835827D01*
X129518937Y-84981498D01*
X129518934Y-84981510D01*
X129488173Y-85136153D01*
X129488173Y-85293846D01*
X129518934Y-85448489D01*
X129518937Y-85448501D01*
X129579275Y-85594172D01*
X129579282Y-85594185D01*
X129666883Y-85725288D01*
X129666886Y-85725292D01*
X129778380Y-85836786D01*
X129778384Y-85836789D01*
X129909487Y-85924390D01*
X129909500Y-85924397D01*
X130001266Y-85962407D01*
X130055176Y-85984737D01*
X130153445Y-86004284D01*
X130209826Y-86015499D01*
X130209829Y-86015500D01*
X130209831Y-86015500D01*
X131167517Y-86015500D01*
X131167518Y-86015499D01*
X131322170Y-85984737D01*
X131358048Y-85969875D01*
X131427516Y-85962407D01*
X131489996Y-85993682D01*
X131525648Y-86053771D01*
X131529500Y-86084437D01*
X131529500Y-87702474D01*
X131559516Y-87814498D01*
X131567014Y-87842480D01*
X131567016Y-87842485D01*
X131639490Y-87968015D01*
X133146985Y-89475510D01*
X133146986Y-89475511D01*
X133146988Y-89475512D01*
X133160123Y-89483095D01*
X133208341Y-89533660D01*
X133221566Y-89602267D01*
X133195600Y-89667132D01*
X133185808Y-89678165D01*
X131639491Y-91224483D01*
X131639489Y-91224486D01*
X131567016Y-91350014D01*
X131567016Y-91350015D01*
X131529500Y-91490025D01*
X131529500Y-91490027D01*
X131529500Y-92985562D01*
X131509815Y-93052601D01*
X131457011Y-93098356D01*
X131387853Y-93108300D01*
X131358049Y-93100124D01*
X131322170Y-93085263D01*
X131322162Y-93085261D01*
X131167518Y-93054500D01*
X131167515Y-93054500D01*
X130209831Y-93054500D01*
X130209828Y-93054500D01*
X130055183Y-93085261D01*
X130055171Y-93085264D01*
X129909500Y-93145602D01*
X129909487Y-93145609D01*
X129778384Y-93233210D01*
X129778380Y-93233213D01*
X129666886Y-93344707D01*
X129666883Y-93344711D01*
X129579282Y-93475814D01*
X129579275Y-93475827D01*
X129518937Y-93621498D01*
X129518934Y-93621510D01*
X129488173Y-93776153D01*
X129488173Y-93933846D01*
X129518934Y-94088489D01*
X129518937Y-94088501D01*
X129579275Y-94234172D01*
X129579282Y-94234185D01*
X129666883Y-94365288D01*
X129666886Y-94365292D01*
X129778380Y-94476786D01*
X129778384Y-94476789D01*
X129909487Y-94564390D01*
X129909500Y-94564397D01*
X130001266Y-94602407D01*
X130055176Y-94624737D01*
X130209826Y-94655499D01*
X130209829Y-94655500D01*
X130209831Y-94655500D01*
X131167517Y-94655500D01*
X131167518Y-94655499D01*
X131322170Y-94624737D01*
X131358048Y-94609875D01*
X131427516Y-94602407D01*
X131489996Y-94633682D01*
X131525648Y-94693771D01*
X131529500Y-94724437D01*
X131529500Y-95013964D01*
X131509815Y-95081003D01*
X131479812Y-95113230D01*
X131447457Y-95137450D01*
X131447451Y-95137457D01*
X131361206Y-95252664D01*
X131361202Y-95252671D01*
X131310910Y-95387513D01*
X131310909Y-95387517D01*
X131304500Y-95447127D01*
X131304500Y-95447134D01*
X131304500Y-95447135D01*
X131304500Y-95942870D01*
X131304501Y-95942876D01*
X131310908Y-96002483D01*
X131361202Y-96137328D01*
X131361206Y-96137335D01*
X131447452Y-96252544D01*
X131447455Y-96252547D01*
X131562664Y-96338793D01*
X131562671Y-96338797D01*
X131607618Y-96355561D01*
X131697517Y-96389091D01*
X131757127Y-96395500D01*
X132402872Y-96395499D01*
X132462483Y-96389091D01*
X132597331Y-96338796D01*
X132712546Y-96252546D01*
X132798796Y-96137331D01*
X132849091Y-96002483D01*
X132855500Y-95942873D01*
X132855499Y-95447128D01*
X132849091Y-95387517D01*
X132798796Y-95252669D01*
X132798795Y-95252668D01*
X132798793Y-95252664D01*
X132712548Y-95137457D01*
X132712546Y-95137454D01*
X132712544Y-95137452D01*
X132712542Y-95137450D01*
X132680188Y-95113230D01*
X132638318Y-95057296D01*
X132630500Y-95013964D01*
X132630500Y-91841886D01*
X132650185Y-91774847D01*
X132666815Y-91754209D01*
X132913670Y-91507353D01*
X132933103Y-91496742D01*
X132949841Y-91482240D01*
X132963171Y-91480323D01*
X132974991Y-91473870D01*
X132997080Y-91475449D01*
X133019000Y-91472299D01*
X133031249Y-91477893D01*
X133044682Y-91478854D01*
X133062409Y-91492124D01*
X133082555Y-91501325D01*
X133097050Y-91518056D01*
X133100616Y-91520725D01*
X133105666Y-91528000D01*
X133121094Y-91552008D01*
X133123813Y-91556439D01*
X133130323Y-91567569D01*
X133132458Y-91570551D01*
X133135007Y-91573781D01*
X133135788Y-91574871D01*
X133135792Y-91574877D01*
X133135796Y-91574882D01*
X133174077Y-91623001D01*
X133174079Y-91623003D01*
X133185691Y-91631173D01*
X133185695Y-91631176D01*
X133192947Y-91636278D01*
X133220812Y-91662552D01*
X133254964Y-91679918D01*
X133265895Y-91687609D01*
X133274131Y-91691370D01*
X133274131Y-91691369D01*
X133289776Y-91698514D01*
X133289775Y-91698514D01*
X133304696Y-91705327D01*
X133305405Y-91705648D01*
X133305404Y-91705652D01*
X133307079Y-91706417D01*
X133320889Y-91713439D01*
X133325276Y-91714727D01*
X133329445Y-91716631D01*
X133387678Y-91736419D01*
X133414156Y-91737530D01*
X133426587Y-91738681D01*
X133474000Y-91745500D01*
X134919672Y-91745500D01*
X134986711Y-91765185D01*
X135032466Y-91817989D01*
X135043672Y-91869500D01*
X135043672Y-92600028D01*
X135030204Y-92656230D01*
X134981560Y-92751896D01*
X134961877Y-92818927D01*
X134949500Y-92905008D01*
X134949500Y-92930500D01*
X134929815Y-92997539D01*
X134877011Y-93043294D01*
X134825500Y-93054500D01*
X134019828Y-93054500D01*
X133865183Y-93085261D01*
X133865171Y-93085264D01*
X133719500Y-93145602D01*
X133719487Y-93145609D01*
X133588384Y-93233210D01*
X133588380Y-93233213D01*
X133476886Y-93344707D01*
X133476883Y-93344711D01*
X133389282Y-93475814D01*
X133389275Y-93475827D01*
X133328937Y-93621498D01*
X133328934Y-93621510D01*
X133298173Y-93776153D01*
X133298173Y-93933846D01*
X133328934Y-94088489D01*
X133328937Y-94088501D01*
X133389275Y-94234172D01*
X133389282Y-94234185D01*
X133476883Y-94365288D01*
X133476886Y-94365292D01*
X133588380Y-94476786D01*
X133588384Y-94476789D01*
X133719487Y-94564390D01*
X133719500Y-94564397D01*
X133811266Y-94602407D01*
X133865176Y-94624737D01*
X134019826Y-94655499D01*
X134019829Y-94655500D01*
X134019831Y-94655500D01*
X134825500Y-94655500D01*
X134892539Y-94675185D01*
X134938294Y-94727989D01*
X134949500Y-94779500D01*
X134949500Y-100206000D01*
X134929815Y-100273039D01*
X134877011Y-100318794D01*
X134825500Y-100330000D01*
X129857157Y-100330000D01*
X129855800Y-100329793D01*
X129855114Y-100329983D01*
X129820267Y-100324385D01*
X129755831Y-100304306D01*
X129741831Y-100298997D01*
X129480263Y-100181275D01*
X129467004Y-100174316D01*
X129221540Y-100025928D01*
X129209217Y-100017422D01*
X128983426Y-99840526D01*
X128972218Y-99830596D01*
X128941319Y-99799697D01*
X128907834Y-99738374D01*
X128905000Y-99712016D01*
X128905000Y-75547984D01*
X128924685Y-75480945D01*
X128941312Y-75460309D01*
X128972233Y-75429388D01*
X128983417Y-75419480D01*
X129209230Y-75242567D01*
X129221526Y-75234080D01*
X129467016Y-75085676D01*
X129480249Y-75078731D01*
X129741841Y-74960998D01*
X129755812Y-74955699D01*
X129820271Y-74935613D01*
X129857157Y-74930000D01*
X180657843Y-74930000D01*
X180694727Y-74935613D01*
G37*
%TD.AperFunction*%
%TD*%
M02*
