%TF.GenerationSoftware,KiCad,Pcbnew,9.0.7*%
%TF.CreationDate,2026-07-19T17:45:38-07:00*%
%TF.ProjectId,USB-C-12V-2A-BUCK-BOOST-CONVERTER,5553422d-432d-4313-9256-2d32412d4255,rev?*%
%TF.SameCoordinates,Original*%
%TF.FileFunction,Paste,Top*%
%TF.FilePolarity,Positive*%
%FSLAX46Y46*%
G04 Gerber Fmt 4.6, Leading zero omitted, Abs format (unit mm)*
G04 Created by KiCad (PCBNEW 9.0.7) date 2026-07-19 17:45:38*
%MOMM*%
%LPD*%
G01*
G04 APERTURE LIST*
G04 Aperture macros list*
%AMRoundRect*
0 Rectangle with rounded corners*
0 $1 Rounding radius*
0 $2 $3 $4 $5 $6 $7 $8 $9 X,Y pos of 4 corners*
0 Add a 4 corners polygon primitive as box body*
4,1,4,$2,$3,$4,$5,$6,$7,$8,$9,$2,$3,0*
0 Add four circle primitives for the rounded corners*
1,1,$1+$1,$2,$3*
1,1,$1+$1,$4,$5*
1,1,$1+$1,$6,$7*
1,1,$1+$1,$8,$9*
0 Add four rect primitives between the rounded corners*
20,1,$1+$1,$2,$3,$4,$5,0*
20,1,$1+$1,$4,$5,$6,$7,0*
20,1,$1+$1,$6,$7,$8,$9,0*
20,1,$1+$1,$8,$9,$2,$3,0*%
G04 Aperture macros list end*
%ADD10RoundRect,0.250000X-0.475000X0.250000X-0.475000X-0.250000X0.475000X-0.250000X0.475000X0.250000X0*%
%ADD11RoundRect,0.225000X0.250000X-0.225000X0.250000X0.225000X-0.250000X0.225000X-0.250000X-0.225000X0*%
%ADD12RoundRect,0.200000X-0.275000X0.200000X-0.275000X-0.200000X0.275000X-0.200000X0.275000X0.200000X0*%
%ADD13RoundRect,0.225000X-0.225000X-0.250000X0.225000X-0.250000X0.225000X0.250000X-0.225000X0.250000X0*%
%ADD14RoundRect,0.250000X-0.250000X-0.475000X0.250000X-0.475000X0.250000X0.475000X-0.250000X0.475000X0*%
%ADD15R,1.000000X0.700000*%
%ADD16R,1.000000X0.750000*%
%ADD17R,1.000000X0.800000*%
%ADD18R,0.300000X0.600000*%
%ADD19R,1.200000X0.450000*%
%ADD20R,1.100000X1.100000*%
%ADD21R,3.400000X2.000000*%
%ADD22RoundRect,0.200000X0.275000X-0.200000X0.275000X0.200000X-0.275000X0.200000X-0.275000X-0.200000X0*%
%ADD23RoundRect,0.250000X0.250000X0.475000X-0.250000X0.475000X-0.250000X-0.475000X0.250000X-0.475000X0*%
%ADD24RoundRect,0.200000X-0.200000X-0.275000X0.200000X-0.275000X0.200000X0.275000X-0.200000X0.275000X0*%
G04 APERTURE END LIST*
D10*
%TO.C,C9*%
X161290000Y-81285000D03*
X161290000Y-83185000D03*
%TD*%
D11*
%TO.C,C6*%
X153035000Y-81420000D03*
X153035000Y-79870000D03*
%TD*%
D12*
%TO.C,R2*%
X132080000Y-95695000D03*
X132080000Y-97345000D03*
%TD*%
D10*
%TO.C,C12*%
X171450000Y-81285000D03*
X171450000Y-83185000D03*
%TD*%
D13*
%TO.C,C7*%
X166117500Y-85400484D03*
X167667500Y-85400484D03*
%TD*%
D14*
%TO.C,C3*%
X149230000Y-94615000D03*
X151130000Y-94615000D03*
%TD*%
D10*
%TO.C,C11*%
X168275000Y-81285000D03*
X168275000Y-83185000D03*
%TD*%
D15*
%TO.C,USB-C*%
X134548673Y-89035000D03*
D16*
X134548673Y-91035000D03*
D17*
X134548673Y-92235000D03*
D15*
X134548673Y-90035000D03*
D16*
X134548673Y-88035000D03*
D17*
X134548673Y-86835000D03*
%TD*%
D18*
%TO.C,U1*%
X155460000Y-83750000D03*
X155960000Y-83750000D03*
X156460000Y-83750000D03*
X156960000Y-83750000D03*
D19*
X156910000Y-82900000D03*
X156910000Y-82200000D03*
D18*
X156960000Y-81350000D03*
X156460000Y-81350000D03*
X155960000Y-81350000D03*
X155460000Y-81350000D03*
D20*
X155510000Y-82550000D03*
%TD*%
D12*
%TO.C,R4*%
X152920000Y-84900000D03*
X152920000Y-86550000D03*
%TD*%
D21*
%TO.C,L1*%
X143510000Y-87890000D03*
X143510000Y-82290000D03*
%TD*%
D12*
%TO.C,R6*%
X157480000Y-85535000D03*
X157480000Y-87185000D03*
%TD*%
D22*
%TO.C,R5*%
X160020000Y-87185000D03*
X160020000Y-85535000D03*
%TD*%
D13*
%TO.C,C1*%
X156070000Y-76835000D03*
X157620000Y-76835000D03*
%TD*%
%TO.C,C8*%
X166117500Y-87155484D03*
X167667500Y-87155484D03*
%TD*%
D22*
%TO.C,R1*%
X132080000Y-83375000D03*
X132080000Y-81725000D03*
%TD*%
D14*
%TO.C,C2*%
X149230000Y-91440000D03*
X151130000Y-91440000D03*
%TD*%
D12*
%TO.C,R3*%
X162560000Y-85535000D03*
X162560000Y-87185000D03*
%TD*%
D23*
%TO.C,C5*%
X153985000Y-88900000D03*
X152085000Y-88900000D03*
%TD*%
D14*
%TO.C,C4*%
X149230000Y-97790000D03*
X151130000Y-97790000D03*
%TD*%
D24*
%TO.C,R7*%
X157290000Y-78740000D03*
X158940000Y-78740000D03*
%TD*%
D10*
%TO.C,C10*%
X165100000Y-81285000D03*
X165100000Y-83185000D03*
%TD*%
M02*
