%TF.GenerationSoftware,KiCad,Pcbnew,9.0.7*%
%TF.CreationDate,2026-07-19T17:45:38-07:00*%
%TF.ProjectId,USB-C-12V-2A-BUCK-BOOST-CONVERTER,5553422d-432d-4313-9256-2d32412d4255,rev?*%
%TF.SameCoordinates,Original*%
%TF.FileFunction,Copper,L2,Bot*%
%TF.FilePolarity,Positive*%
%FSLAX46Y46*%
G04 Gerber Fmt 4.6, Leading zero omitted, Abs format (unit mm)*
G04 Created by KiCad (PCBNEW 9.0.7) date 2026-07-19 17:45:38*
%MOMM*%
%LPD*%
G01*
G04 APERTURE LIST*
G04 Aperture macros list*
%AMRoundRect*
0 Rectangle with rounded corners*
0 $1 Rounding radius*
0 $2 $3 $4 $5 $6 $7 $8 $9 X,Y pos of 4 corners*
0 Add a 4 corners polygon primitive as box body*
4,1,4,$2,$3,$4,$5,$6,$7,$8,$9,$2,$3,0*
0 Add four circle primitives for the rounded corners*
1,1,$1+$1,$2,$3*
1,1,$1+$1,$4,$5*
1,1,$1+$1,$6,$7*
1,1,$1+$1,$8,$9*
0 Add four rect primitives between the rounded corners*
20,1,$1+$1,$2,$3,$4,$5,0*
20,1,$1+$1,$4,$5,$6,$7,0*
20,1,$1+$1,$6,$7,$8,$9,0*
20,1,$1+$1,$8,$9,$2,$3,0*%
G04 Aperture macros list end*
%TA.AperFunction,ComponentPad*%
%ADD10RoundRect,0.250000X0.750000X-0.600000X0.750000X0.600000X-0.750000X0.600000X-0.750000X-0.600000X0*%
%TD*%
%TA.AperFunction,ComponentPad*%
%ADD11O,2.000000X1.700000*%
%TD*%
%TA.AperFunction,ComponentPad*%
%ADD12O,1.800000X1.000000*%
%TD*%
%TA.AperFunction,ViaPad*%
%ADD13C,0.600000*%
%TD*%
%TA.AperFunction,Conductor*%
%ADD14C,0.300000*%
%TD*%
G04 APERTURE END LIST*
D10*
%TO.P,J1,1,Pin_1*%
%TO.N,GND*%
X177800000Y-83820000D03*
D11*
%TO.P,J1,2,Pin_2*%
%TO.N,Net-(J1-Pin_2)*%
X177800000Y-81320000D03*
%TD*%
D12*
%TO.P,USB-C,1,SHELL*%
%TO.N,unconnected-(USB1-SHELL-Pad1)*%
X134498673Y-85215000D03*
%TO.N,unconnected-(USB1-SHELL-Pad1)_1*%
X130688673Y-85215000D03*
%TO.P,USB-C,2,SHELL*%
%TO.N,unconnected-(USB1-SHELL-Pad2)*%
X134498673Y-93855000D03*
%TO.N,unconnected-(USB1-SHELL-Pad2)_1*%
X130688673Y-93855000D03*
%TD*%
D13*
%TO.N,GND*%
X179070000Y-96520000D03*
X175895000Y-96520000D03*
X172720000Y-96520000D03*
X179070000Y-93980000D03*
X175895000Y-93980000D03*
X172720000Y-93980000D03*
X179070000Y-91440000D03*
X175895000Y-91440000D03*
X172720000Y-91440000D03*
X179070000Y-88900000D03*
X175895000Y-88900000D03*
X172720000Y-88900000D03*
X179070000Y-86360000D03*
X175895000Y-86360000D03*
X172720000Y-86360000D03*
X163830000Y-97790000D03*
X161290000Y-97790000D03*
X153670000Y-97790000D03*
X156210000Y-97790000D03*
X158750000Y-97790000D03*
X163830000Y-94615000D03*
X161290000Y-94615000D03*
X153670000Y-94615000D03*
X156210000Y-94615000D03*
X158750000Y-94615000D03*
X163830000Y-91440000D03*
X161290000Y-91440000D03*
X158750000Y-91440000D03*
X156210000Y-91440000D03*
X153670000Y-91440000D03*
X177800000Y-76200000D03*
X175260000Y-76200000D03*
X172720000Y-76200000D03*
X170180000Y-76200000D03*
X167640000Y-76200000D03*
X165100000Y-76200000D03*
X162560000Y-76200000D03*
X160020000Y-76200000D03*
X133985000Y-83185000D03*
X133985000Y-81280000D03*
X133985000Y-77470000D03*
X133985000Y-79375000D03*
X132080000Y-79375000D03*
X132080000Y-77470000D03*
X130175000Y-77470000D03*
X130175000Y-79375000D03*
X130175000Y-81280000D03*
X130175000Y-83185000D03*
X133985000Y-96520000D03*
X133985000Y-98425000D03*
X132080000Y-99060000D03*
X130175000Y-98425000D03*
X130175000Y-96520000D03*
X130175000Y-86995000D03*
X130175000Y-88265000D03*
X130175000Y-89535000D03*
X130175000Y-90805000D03*
X130175000Y-92075000D03*
%TO.N,Net-(U1-EN)*%
X157480000Y-80010000D03*
X155415000Y-87470000D03*
%TO.N,Net-(J1-Pin_2)*%
X160020000Y-81915000D03*
X160020000Y-88265000D03*
%TD*%
D14*
%TO.N,Net-(J1-Pin_2)*%
X160020000Y-81915000D02*
X160020000Y-88265000D01*
%TO.N,Net-(U1-EN)*%
X157480000Y-85405000D02*
X157480000Y-80010000D01*
X155415000Y-87470000D02*
X157480000Y-85405000D01*
%TD*%
%TA.AperFunction,Conductor*%
%TO.N,GND*%
G36*
X180694727Y-74935613D02*
G01*
X180759187Y-74955699D01*
X180773163Y-74961000D01*
X181034743Y-75078727D01*
X181047989Y-75085680D01*
X181293465Y-75234075D01*
X181305776Y-75242573D01*
X181531573Y-75419473D01*
X181542781Y-75429403D01*
X181573681Y-75460303D01*
X181607166Y-75521626D01*
X181610000Y-75547984D01*
X181610000Y-99712016D01*
X181590315Y-99779055D01*
X181573684Y-99799693D01*
X181542782Y-99830596D01*
X181542780Y-99830598D01*
X181531573Y-99840526D01*
X181305782Y-100017422D01*
X181293459Y-100025928D01*
X181047995Y-100174316D01*
X181034736Y-100181275D01*
X180773168Y-100298997D01*
X180759168Y-100304306D01*
X180718032Y-100317124D01*
X180694732Y-100324385D01*
X180657843Y-100330000D01*
X129857157Y-100330000D01*
X129820267Y-100324385D01*
X129755831Y-100304306D01*
X129741831Y-100298997D01*
X129480263Y-100181275D01*
X129467004Y-100174316D01*
X129221540Y-100025928D01*
X129209217Y-100017422D01*
X128983426Y-99840526D01*
X128972218Y-99830596D01*
X128941319Y-99799697D01*
X128907834Y-99738374D01*
X128905000Y-99712016D01*
X128905000Y-93776153D01*
X129488173Y-93776153D01*
X129488173Y-93933846D01*
X129518934Y-94088489D01*
X129518937Y-94088501D01*
X129579275Y-94234172D01*
X129579282Y-94234185D01*
X129666883Y-94365288D01*
X129666886Y-94365292D01*
X129778380Y-94476786D01*
X129778384Y-94476789D01*
X129909487Y-94564390D01*
X129909500Y-94564397D01*
X130055171Y-94624735D01*
X130055176Y-94624737D01*
X130209826Y-94655499D01*
X130209829Y-94655500D01*
X130209831Y-94655500D01*
X131167517Y-94655500D01*
X131167518Y-94655499D01*
X131322170Y-94624737D01*
X131467852Y-94564394D01*
X131598962Y-94476789D01*
X131710462Y-94365289D01*
X131798067Y-94234179D01*
X131858410Y-94088497D01*
X131889173Y-93933842D01*
X131889173Y-93776158D01*
X131889173Y-93776155D01*
X131889172Y-93776153D01*
X133298173Y-93776153D01*
X133298173Y-93933846D01*
X133328934Y-94088489D01*
X133328937Y-94088501D01*
X133389275Y-94234172D01*
X133389282Y-94234185D01*
X133476883Y-94365288D01*
X133476886Y-94365292D01*
X133588380Y-94476786D01*
X133588384Y-94476789D01*
X133719487Y-94564390D01*
X133719500Y-94564397D01*
X133865171Y-94624735D01*
X133865176Y-94624737D01*
X134019826Y-94655499D01*
X134019829Y-94655500D01*
X134019831Y-94655500D01*
X134977517Y-94655500D01*
X134977518Y-94655499D01*
X135132170Y-94624737D01*
X135277852Y-94564394D01*
X135408962Y-94476789D01*
X135520462Y-94365289D01*
X135608067Y-94234179D01*
X135668410Y-94088497D01*
X135699173Y-93933842D01*
X135699173Y-93776158D01*
X135699173Y-93776155D01*
X135699172Y-93776153D01*
X135668411Y-93621510D01*
X135668410Y-93621503D01*
X135668408Y-93621498D01*
X135608070Y-93475827D01*
X135608063Y-93475814D01*
X135520462Y-93344711D01*
X135520459Y-93344707D01*
X135408965Y-93233213D01*
X135408961Y-93233210D01*
X135277858Y-93145609D01*
X135277845Y-93145602D01*
X135132174Y-93085264D01*
X135132162Y-93085261D01*
X134977518Y-93054500D01*
X134977515Y-93054500D01*
X134019831Y-93054500D01*
X134019828Y-93054500D01*
X133865183Y-93085261D01*
X133865171Y-93085264D01*
X133719500Y-93145602D01*
X133719487Y-93145609D01*
X133588384Y-93233210D01*
X133588380Y-93233213D01*
X133476886Y-93344707D01*
X133476883Y-93344711D01*
X133389282Y-93475814D01*
X133389275Y-93475827D01*
X133328937Y-93621498D01*
X133328934Y-93621510D01*
X133298173Y-93776153D01*
X131889172Y-93776153D01*
X131858411Y-93621510D01*
X131858410Y-93621503D01*
X131858408Y-93621498D01*
X131798070Y-93475827D01*
X131798063Y-93475814D01*
X131710462Y-93344711D01*
X131710459Y-93344707D01*
X131598965Y-93233213D01*
X131598961Y-93233210D01*
X131467858Y-93145609D01*
X131467845Y-93145602D01*
X131322174Y-93085264D01*
X131322162Y-93085261D01*
X131167518Y-93054500D01*
X131167515Y-93054500D01*
X130209831Y-93054500D01*
X130209828Y-93054500D01*
X130055183Y-93085261D01*
X130055171Y-93085264D01*
X129909500Y-93145602D01*
X129909487Y-93145609D01*
X129778384Y-93233210D01*
X129778380Y-93233213D01*
X129666886Y-93344707D01*
X129666883Y-93344711D01*
X129579282Y-93475814D01*
X129579275Y-93475827D01*
X129518937Y-93621498D01*
X129518934Y-93621510D01*
X129488173Y-93776153D01*
X128905000Y-93776153D01*
X128905000Y-87390943D01*
X154814500Y-87390943D01*
X154814500Y-87549056D01*
X154855423Y-87701783D01*
X154855426Y-87701790D01*
X154934475Y-87838709D01*
X154934479Y-87838714D01*
X154934480Y-87838716D01*
X155046284Y-87950520D01*
X155046286Y-87950521D01*
X155046290Y-87950524D01*
X155183209Y-88029573D01*
X155183216Y-88029577D01*
X155335943Y-88070500D01*
X155335945Y-88070500D01*
X155494055Y-88070500D01*
X155494057Y-88070500D01*
X155646784Y-88029577D01*
X155783716Y-87950520D01*
X155895520Y-87838716D01*
X155974577Y-87701784D01*
X156015500Y-87549057D01*
X156015500Y-87549044D01*
X156016441Y-87541901D01*
X156044707Y-87478003D01*
X156051688Y-87470414D01*
X157840489Y-85681614D01*
X157899799Y-85578887D01*
X157906285Y-85554675D01*
X157906286Y-85554675D01*
X157906286Y-85554671D01*
X157930500Y-85464309D01*
X157930500Y-81835943D01*
X159419500Y-81835943D01*
X159419500Y-81994057D01*
X159439714Y-82069494D01*
X159460423Y-82146783D01*
X159460426Y-82146790D01*
X159539473Y-82283706D01*
X159539477Y-82283712D01*
X159539480Y-82283716D01*
X159539482Y-82283718D01*
X159543872Y-82289438D01*
X159569069Y-82354606D01*
X159569500Y-82364930D01*
X159569500Y-87815069D01*
X159549815Y-87882108D01*
X159543875Y-87890557D01*
X159539475Y-87896290D01*
X159460426Y-88033209D01*
X159460423Y-88033216D01*
X159419500Y-88185943D01*
X159419500Y-88344056D01*
X159460423Y-88496783D01*
X159460426Y-88496790D01*
X159539475Y-88633709D01*
X159539479Y-88633714D01*
X159539480Y-88633716D01*
X159651284Y-88745520D01*
X159651286Y-88745521D01*
X159651290Y-88745524D01*
X159788209Y-88824573D01*
X159788216Y-88824577D01*
X159940943Y-88865500D01*
X159940945Y-88865500D01*
X160099055Y-88865500D01*
X160099057Y-88865500D01*
X160251784Y-88824577D01*
X160388716Y-88745520D01*
X160500520Y-88633716D01*
X160579577Y-88496784D01*
X160620500Y-88344057D01*
X160620500Y-88185943D01*
X160579577Y-88033216D01*
X160577476Y-88029577D01*
X160500524Y-87896290D01*
X160500521Y-87896287D01*
X160500520Y-87896284D01*
X160500517Y-87896281D01*
X160496125Y-87890557D01*
X160470930Y-87825388D01*
X160470500Y-87815069D01*
X160470500Y-82364930D01*
X160490185Y-82297891D01*
X160496128Y-82289438D01*
X160500512Y-82283723D01*
X160500520Y-82283716D01*
X160579577Y-82146784D01*
X160620500Y-81994057D01*
X160620500Y-81835943D01*
X160579577Y-81683216D01*
X160525418Y-81589409D01*
X160500524Y-81546290D01*
X160500518Y-81546282D01*
X160388717Y-81434481D01*
X160388709Y-81434475D01*
X160251790Y-81355426D01*
X160251785Y-81355423D01*
X160238237Y-81351793D01*
X160210482Y-81344356D01*
X160165250Y-81332236D01*
X160099057Y-81314500D01*
X159940943Y-81314500D01*
X159788216Y-81355423D01*
X159788209Y-81355426D01*
X159651290Y-81434475D01*
X159651282Y-81434481D01*
X159539481Y-81546282D01*
X159539475Y-81546290D01*
X159460426Y-81683209D01*
X159460423Y-81683216D01*
X159419500Y-81835943D01*
X157930500Y-81835943D01*
X157930500Y-81229448D01*
X176499500Y-81229448D01*
X176499500Y-81410551D01*
X176527829Y-81589410D01*
X176583787Y-81761636D01*
X176583788Y-81761639D01*
X176666006Y-81922997D01*
X176772441Y-82069494D01*
X176772445Y-82069499D01*
X176900500Y-82197554D01*
X176900505Y-82197558D01*
X177019079Y-82283706D01*
X177047006Y-82303996D01*
X177146333Y-82354606D01*
X177208360Y-82386211D01*
X177208363Y-82386212D01*
X177294476Y-82414191D01*
X177380591Y-82442171D01*
X177463429Y-82455291D01*
X177559449Y-82470500D01*
X177559454Y-82470500D01*
X178040551Y-82470500D01*
X178127259Y-82456765D01*
X178219409Y-82442171D01*
X178391639Y-82386211D01*
X178552994Y-82303996D01*
X178699501Y-82197553D01*
X178827553Y-82069501D01*
X178933996Y-81922994D01*
X179016211Y-81761639D01*
X179072171Y-81589409D01*
X179086765Y-81497259D01*
X179100500Y-81410551D01*
X179100500Y-81229448D01*
X179084019Y-81125397D01*
X179072171Y-81050591D01*
X179016211Y-80878361D01*
X179016211Y-80878360D01*
X178987740Y-80822484D01*
X178933996Y-80717006D01*
X178920396Y-80698287D01*
X178827558Y-80570505D01*
X178827554Y-80570500D01*
X178699499Y-80442445D01*
X178699494Y-80442441D01*
X178552997Y-80336006D01*
X178552996Y-80336005D01*
X178552994Y-80336004D01*
X178501300Y-80309664D01*
X178391639Y-80253788D01*
X178391636Y-80253787D01*
X178219410Y-80197829D01*
X178040551Y-80169500D01*
X178040546Y-80169500D01*
X177559454Y-80169500D01*
X177559449Y-80169500D01*
X177380589Y-80197829D01*
X177208363Y-80253787D01*
X177208360Y-80253788D01*
X177047002Y-80336006D01*
X176900505Y-80442441D01*
X176900500Y-80442445D01*
X176772445Y-80570500D01*
X176772441Y-80570505D01*
X176666006Y-80717002D01*
X176583788Y-80878360D01*
X176583787Y-80878363D01*
X176527829Y-81050589D01*
X176499500Y-81229448D01*
X157930500Y-81229448D01*
X157930500Y-80459930D01*
X157950185Y-80392891D01*
X157956128Y-80384438D01*
X157960512Y-80378723D01*
X157960520Y-80378716D01*
X158039577Y-80241784D01*
X158080500Y-80089057D01*
X158080500Y-79930943D01*
X158039577Y-79778216D01*
X158039573Y-79778209D01*
X157960524Y-79641290D01*
X157960518Y-79641282D01*
X157848717Y-79529481D01*
X157848709Y-79529475D01*
X157711790Y-79450426D01*
X157711786Y-79450424D01*
X157711784Y-79450423D01*
X157559057Y-79409500D01*
X157400943Y-79409500D01*
X157248216Y-79450423D01*
X157248209Y-79450426D01*
X157111290Y-79529475D01*
X157111282Y-79529481D01*
X156999481Y-79641282D01*
X156999475Y-79641290D01*
X156920426Y-79778209D01*
X156920423Y-79778216D01*
X156879500Y-79930943D01*
X156879500Y-80089057D01*
X156908646Y-80197829D01*
X156920423Y-80241783D01*
X156920426Y-80241790D01*
X156999473Y-80378706D01*
X156999477Y-80378712D01*
X156999480Y-80378716D01*
X156999482Y-80378718D01*
X157003872Y-80384438D01*
X157029069Y-80449606D01*
X157029500Y-80459930D01*
X157029500Y-85167035D01*
X157009815Y-85234074D01*
X156993181Y-85254716D01*
X155414597Y-86833299D01*
X155353274Y-86866784D01*
X155343107Y-86868556D01*
X155335949Y-86869498D01*
X155183216Y-86910423D01*
X155183209Y-86910426D01*
X155046290Y-86989475D01*
X155046282Y-86989481D01*
X154934481Y-87101282D01*
X154934475Y-87101290D01*
X154855426Y-87238209D01*
X154855423Y-87238216D01*
X154814500Y-87390943D01*
X128905000Y-87390943D01*
X128905000Y-85136153D01*
X129488173Y-85136153D01*
X129488173Y-85293846D01*
X129518934Y-85448489D01*
X129518937Y-85448501D01*
X129579275Y-85594172D01*
X129579282Y-85594185D01*
X129666883Y-85725288D01*
X129666886Y-85725292D01*
X129778380Y-85836786D01*
X129778384Y-85836789D01*
X129909487Y-85924390D01*
X129909500Y-85924397D01*
X130055171Y-85984735D01*
X130055176Y-85984737D01*
X130209826Y-86015499D01*
X130209829Y-86015500D01*
X130209831Y-86015500D01*
X131167517Y-86015500D01*
X131167518Y-86015499D01*
X131322170Y-85984737D01*
X131467852Y-85924394D01*
X131598962Y-85836789D01*
X131710462Y-85725289D01*
X131798067Y-85594179D01*
X131858410Y-85448497D01*
X131889173Y-85293842D01*
X131889173Y-85136158D01*
X131889173Y-85136155D01*
X131889172Y-85136153D01*
X133298173Y-85136153D01*
X133298173Y-85293846D01*
X133328934Y-85448489D01*
X133328937Y-85448501D01*
X133389275Y-85594172D01*
X133389282Y-85594185D01*
X133476883Y-85725288D01*
X133476886Y-85725292D01*
X133588380Y-85836786D01*
X133588384Y-85836789D01*
X133719487Y-85924390D01*
X133719500Y-85924397D01*
X133865171Y-85984735D01*
X133865176Y-85984737D01*
X134019826Y-86015499D01*
X134019829Y-86015500D01*
X134019831Y-86015500D01*
X134977517Y-86015500D01*
X134977518Y-86015499D01*
X135132170Y-85984737D01*
X135277852Y-85924394D01*
X135408962Y-85836789D01*
X135520462Y-85725289D01*
X135608067Y-85594179D01*
X135668410Y-85448497D01*
X135699173Y-85293842D01*
X135699173Y-85136158D01*
X135699173Y-85136155D01*
X135699172Y-85136153D01*
X135668411Y-84981510D01*
X135668410Y-84981503D01*
X135668408Y-84981498D01*
X135608070Y-84835827D01*
X135608063Y-84835814D01*
X135520462Y-84704711D01*
X135520459Y-84704707D01*
X135408965Y-84593213D01*
X135408961Y-84593210D01*
X135277858Y-84505609D01*
X135277845Y-84505602D01*
X135132174Y-84445264D01*
X135132162Y-84445261D01*
X134977518Y-84414500D01*
X134977515Y-84414500D01*
X134019831Y-84414500D01*
X134019828Y-84414500D01*
X133865183Y-84445261D01*
X133865171Y-84445264D01*
X133719500Y-84505602D01*
X133719487Y-84505609D01*
X133588384Y-84593210D01*
X133588380Y-84593213D01*
X133476886Y-84704707D01*
X133476883Y-84704711D01*
X133389282Y-84835814D01*
X133389275Y-84835827D01*
X133328937Y-84981498D01*
X133328934Y-84981510D01*
X133298173Y-85136153D01*
X131889172Y-85136153D01*
X131858411Y-84981510D01*
X131858410Y-84981503D01*
X131858408Y-84981498D01*
X131798070Y-84835827D01*
X131798063Y-84835814D01*
X131710462Y-84704711D01*
X131710459Y-84704707D01*
X131598965Y-84593213D01*
X131598961Y-84593210D01*
X131467858Y-84505609D01*
X131467845Y-84505602D01*
X131322174Y-84445264D01*
X131322162Y-84445261D01*
X131167518Y-84414500D01*
X131167515Y-84414500D01*
X130209831Y-84414500D01*
X130209828Y-84414500D01*
X130055183Y-84445261D01*
X130055171Y-84445264D01*
X129909500Y-84505602D01*
X129909487Y-84505609D01*
X129778384Y-84593210D01*
X129778380Y-84593213D01*
X129666886Y-84704707D01*
X129666883Y-84704711D01*
X129579282Y-84835814D01*
X129579275Y-84835827D01*
X129518937Y-84981498D01*
X129518934Y-84981510D01*
X129488173Y-85136153D01*
X128905000Y-85136153D01*
X128905000Y-75547984D01*
X128913644Y-75518544D01*
X128920167Y-75488559D01*
X128923922Y-75483541D01*
X128924685Y-75480945D01*
X128941312Y-75460309D01*
X128972233Y-75429388D01*
X128983417Y-75419480D01*
X129209230Y-75242567D01*
X129221526Y-75234080D01*
X129467016Y-75085676D01*
X129480249Y-75078731D01*
X129741841Y-74960998D01*
X129755812Y-74955699D01*
X129820271Y-74935613D01*
X129857157Y-74930000D01*
X180657843Y-74930000D01*
X180694727Y-74935613D01*
G37*
%TD.AperFunction*%
%TD*%
M02*
