M48
; DRILL file {KiCad 9.0.7} date 2026-07-19T17:45:31-0700
; FORMAT={-:-/ absolute / metric / decimal}
; #@! TF.CreationDate,2026-07-19T17:45:31-07:00
; #@! TF.GenerationSoftware,Kicad,Pcbnew,9.0.7
; #@! TF.FileFunction,Plated,1,2,PTH
FMAT,2
METRIC
; #@! TA.AperFunction,Plated,PTH,ViaDrill
T1C0.300
; #@! TA.AperFunction,Plated,PTH,ComponentDrill
T2C0.600
; #@! TA.AperFunction,Plated,PTH,ComponentDrill
T3C1.000
%
G90
G05
T1
X130.175Y-77.47
X130.175Y-79.375
X130.175Y-81.28
X130.175Y-83.185
X130.175Y-86.995
X130.175Y-88.265
X130.175Y-89.535
X130.175Y-90.805
X130.175Y-92.075
X130.175Y-96.52
X130.175Y-98.425
X132.08Y-77.47
X132.08Y-79.375
X132.08Y-99.06
X133.985Y-77.47
X133.985Y-79.375
X133.985Y-81.28
X133.985Y-83.185
X133.985Y-96.52
X133.985Y-98.425
X153.67Y-91.44
X153.67Y-94.615
X153.67Y-97.79
X155.415Y-87.47
X156.21Y-91.44
X156.21Y-94.615
X156.21Y-97.79
X157.48Y-80.01
X158.75Y-91.44
X158.75Y-94.615
X158.75Y-97.79
X160.02Y-76.2
X160.02Y-81.915
X160.02Y-88.265
X161.29Y-91.44
X161.29Y-94.615
X161.29Y-97.79
X162.56Y-76.2
X163.83Y-91.44
X163.83Y-94.615
X163.83Y-97.79
X165.1Y-76.2
X167.64Y-76.2
X170.18Y-76.2
X172.72Y-76.2
X172.72Y-86.36
X172.72Y-88.9
X172.72Y-91.44
X172.72Y-93.98
X172.72Y-96.52
X175.26Y-76.2
X175.895Y-86.36
X175.895Y-88.9
X175.895Y-91.44
X175.895Y-93.98
X175.895Y-96.52
X177.8Y-76.2
X179.07Y-86.36
X179.07Y-88.9
X179.07Y-91.44
X179.07Y-93.98
X179.07Y-96.52
T3
X177.8Y-81.32
X177.8Y-83.82
T2
G00X131.089Y-85.215
M15
G01X130.289Y-85.215
M16
G05
G00X131.089Y-93.855
M15
G01X130.289Y-93.855
M16
G05
G00X134.899Y-85.215
M15
G01X134.099Y-85.215
M16
G05
G00X134.899Y-93.855
M15
G01X134.099Y-93.855
M16
G05
M30
